<?xml version="1.0" encoding="utf-8" standalone="no"?>
<!DOCTYPE svg PUBLIC "-//W3C//DTD SVG 1.1//EN"
  "http://www.w3.org/Graphics/SVG/1.1/DTD/svg11.dtd">
<svg xmlns:xlink="http://www.w3.org/1999/xlink" width="306pt" height="180pt" viewBox="0 0 306 180" xmlns="http://www.w3.org/2000/svg" version="1.1">
 <metadata>
  <rdf:RDF xmlns:dc="http://purl.org/dc/elements/1.1/" xmlns:cc="http://creativecommons.org/ns#" xmlns:rdf="http://www.w3.org/1999/02/22-rdf-syntax-ns#">
   <cc:Work>
    <dc:type rdf:resource="http://purl.org/dc/dcmitype/StillImage"/>
    <dc:date>2026-01-14T18:04:48.676664</dc:date>
    <dc:format>image/svg+xml</dc:format>
    <dc:creator>
     <cc:Agent>
      <dc:title>Matplotlib v3.10.5, https://matplotlib.org/</dc:title>
     </cc:Agent>
    </dc:creator>
   </cc:Work>
  </rdf:RDF>
 </metadata>
 <defs>
  <style type="text/css">*{stroke-linejoin: round; stroke-linecap: butt}</style>
 </defs>
 <g id="figure_1">
  <g id="patch_1">
   <path d="M 0 180 
L 306 180 
L 306 0 
L 0 0 
z
" style="fill: #ffffff"/>
  </g>
  <g id="axes_1">
   <g id="patch_2">
    <path d="M 45.000415 141.749717 
L 294.12 141.749717 
L 294.12 15.722463 
L 45.000415 15.722463 
z
" style="fill: #ffffff"/>
   </g>
   <g id="matplotlib.axis_1">
    <g id="xtick_1">
     <g id="line2d_1">
      <path d="M 45.000415 141.749717 
L 45.000415 15.722463 
" clip-path="url(#p43f2a13f81)" style="fill: none; stroke-dasharray: 0.8,1.32; stroke-dashoffset: 0; stroke: #000000; stroke-width: 0.8"/>
     </g>
     <g id="line2d_2">
      <defs>
       <path id="m175a79c2f4" d="M 0 0 
L 0 -3 
" style="stroke: #000000"/>
      </defs>
      <g>
       <use xlink:href="#m175a79c2f4" x="45.000415" y="141.749717" style="stroke: #000000"/>
      </g>
     </g>
     <g id="text_1">
      <!-- 2025-06-23 -->
      <g transform="translate(15.159993 166.585341) rotate(-30) scale(0.07634 -0.07634)">
       <defs>
        <path id="LinLibertineT-32" d="M 390 2999 
C 390 2866 512 2752 646 2752 
C 755 2752 947 2866 947 3006 
C 947 3057 934 3095 922 3139 
C 909 3184 870 3241 870 3292 
C 870 3451 1037 3679 1504 3679 
C 1734 3679 2061 3521 2061 2910 
C 2061 2501 1914 2168 1536 1783 
L 1062 1314 
C 435 672 333 364 333 -13 
C 333 -13 659 0 864 0 
L 1984 0 
C 2189 0 2483 -13 2483 -13 
C 2566 326 2630 807 2637 1000 
C 2598 1032 2515 1044 2451 1032 
C 2342 576 2234 416 2003 416 
L 864 416 
C 864 724 1306 1160 1338 1192 
L 1984 1815 
C 2349 2168 2624 2450 2624 2936 
C 2624 3622 2061 3904 1542 3904 
C 832 3904 390 3381 390 2999 
z
" transform="scale(0.015625)"/>
        <path id="LinLibertineT-30" d="M 1485 3679 
C 1594 3679 1696 3641 1773 3571 
C 1971 3405 2144 2918 2144 2060 
C 2144 1472 2125 1068 2035 742 
C 1894 217 1581 160 1466 160 
C 870 160 806 1254 806 1811 
C 806 3385 1197 3679 1485 3679 
z
M 1459 -64 
C 1952 -64 2701 435 2701 1939 
C 2701 2572 2547 3116 2266 3488 
C 2099 3711 1830 3904 1485 3904 
C 851 3904 250 3148 250 1881 
C 250 1196 461 556 813 204 
C 992 25 1210 -64 1459 -64 
z
" transform="scale(0.015625)"/>
        <path id="LinLibertineT-35" d="M 2042 1209 
C 2042 605 1722 160 1338 160 
C 1094 160 1011 318 915 446 
C 832 554 723 649 589 649 
C 467 649 346 541 346 414 
C 346 153 890 -64 1254 -64 
C 2048 -64 2611 522 2611 1323 
C 2611 1940 2182 2496 1466 2496 
C 1190 2496 954 2438 838 2393 
L 966 3468 
C 1203 3443 1408 3411 1715 3411 
C 1907 3404 2125 3417 2387 3443 
L 2490 3878 
L 2445 3904 
C 2080 3872 1734 3840 1395 3840 
C 1158 3840 928 3852 704 3872 
L 486 2023 
C 826 2150 1069 2176 1299 2176 
C 1715 2176 2042 1902 2042 1209 
z
" transform="scale(0.015625)"/>
        <path id="LinLibertineT-2d" d="M 1734 1408 
C 1818 1408 1907 1587 1907 1664 
C 1907 1728 1882 1792 1818 1792 
L 416 1792 
C 339 1792 256 1644 256 1529 
C 256 1465 294 1408 352 1408 
L 1734 1408 
z
" transform="scale(0.015625)"/>
        <path id="LinLibertineT-36" d="M 864 1965 
C 1075 2105 1286 2112 1395 2112 
C 2022 2112 2163 1499 2163 1180 
C 2163 478 1894 160 1581 160 
C 1178 160 813 376 813 1467 
C 813 1614 826 1780 864 1965 
z
M 922 2195 
C 1094 2775 1504 3419 2355 3737 
C 2355 3814 2330 3871 2278 3904 
C 1632 3712 1235 3444 877 3030 
C 480 2571 282 1990 282 1486 
C 282 191 1018 -64 1510 -64 
C 2349 -64 2694 746 2694 1295 
C 2694 1844 2400 2336 1530 2336 
C 1363 2336 1114 2284 922 2195 
z
" transform="scale(0.015625)"/>
        <path id="LinLibertineT-33" d="M 1376 3679 
C 1651 3679 1907 3512 1907 3098 
C 1907 2776 1536 2279 902 2188 
L 934 1984 
C 1043 1996 1158 1996 1242 1996 
C 1606 1996 2080 1895 2080 1176 
C 2080 331 1510 160 1286 160 
C 960 160 902 306 826 420 
C 762 509 678 585 550 585 
C 416 585 282 465 282 363 
C 282 108 819 -64 1203 -64 
C 1965 -64 2643 426 2643 1265 
C 2643 1958 2118 2208 1741 2272 
L 1734 2285 
C 2259 2537 2406 2802 2406 3144 
C 2406 3337 2362 3492 2208 3654 
C 2067 3795 1843 3904 1510 3904 
C 570 3904 301 3286 301 3073 
C 301 2982 365 2853 518 2853 
C 742 2853 768 3066 768 3189 
C 768 3602 1210 3679 1376 3679 
z
" transform="scale(0.015625)"/>
       </defs>
       <use xlink:href="#LinLibertineT-32" transform="scale(0.996264)"/>
       <use xlink:href="#LinLibertineT-30" transform="translate(46.326292 0) scale(0.996264)"/>
       <use xlink:href="#LinLibertineT-32" transform="translate(92.652583 0) scale(0.996264)"/>
       <use xlink:href="#LinLibertineT-35" transform="translate(138.978875 0) scale(0.996264)"/>
       <use xlink:href="#LinLibertineT-2d" transform="translate(185.305167 0) scale(0.996264)"/>
       <use xlink:href="#LinLibertineT-30" transform="translate(218.978908 0) scale(0.996264)"/>
       <use xlink:href="#LinLibertineT-36" transform="translate(265.3052 0) scale(0.996264)"/>
       <use xlink:href="#LinLibertineT-2d" transform="translate(311.631492 0) scale(0.996264)"/>
       <use xlink:href="#LinLibertineT-32" transform="translate(345.305234 0) scale(0.996264)"/>
       <use xlink:href="#LinLibertineT-33" transform="translate(391.631525 0) scale(0.996264)"/>
      </g>
     </g>
    </g>
    <g id="xtick_2">
     <g id="line2d_3">
      <path d="M 62.794671 141.749717 
L 62.794671 15.722463 
" clip-path="url(#p43f2a13f81)" style="fill: none; stroke-dasharray: 0.8,1.32; stroke-dashoffset: 0; stroke: #000000; stroke-width: 0.8"/>
     </g>
     <g id="line2d_4">
      <g>
       <use xlink:href="#m175a79c2f4" x="62.794671" y="141.749717" style="stroke: #000000"/>
      </g>
     </g>
     <g id="text_2">
      <!-- 2025-07-07 -->
      <g transform="translate(32.95425 166.585341) rotate(-30) scale(0.07634 -0.07634)">
       <defs>
        <path id="LinLibertineT-37" d="M 1088 3423 
L 2234 3423 
C 1734 2189 1229 948 794 -20 
L 845 -64 
L 1280 -45 
C 1645 1037 1997 2093 2714 3833 
L 2611 3904 
C 2502 3878 2362 3840 2118 3840 
L 800 3840 
C 582 3840 595 3904 480 3929 
C 461 3923 454 3923 454 3904 
C 448 3599 378 3217 326 2886 
C 397 2867 461 2861 531 2867 
C 672 3379 883 3423 1088 3423 
z
" transform="scale(0.015625)"/>
       </defs>
       <use xlink:href="#LinLibertineT-32" transform="scale(0.996264)"/>
       <use xlink:href="#LinLibertineT-30" transform="translate(46.326292 0) scale(0.996264)"/>
       <use xlink:href="#LinLibertineT-32" transform="translate(92.652583 0) scale(0.996264)"/>
       <use xlink:href="#LinLibertineT-35" transform="translate(138.978875 0) scale(0.996264)"/>
       <use xlink:href="#LinLibertineT-2d" transform="translate(185.305167 0) scale(0.996264)"/>
       <use xlink:href="#LinLibertineT-30" transform="translate(218.978908 0) scale(0.996264)"/>
       <use xlink:href="#LinLibertineT-37" transform="translate(265.3052 0) scale(0.996264)"/>
       <use xlink:href="#LinLibertineT-2d" transform="translate(311.631492 0) scale(0.996264)"/>
       <use xlink:href="#LinLibertineT-30" transform="translate(345.305234 0) scale(0.996264)"/>
       <use xlink:href="#LinLibertineT-37" transform="translate(391.631525 0) scale(0.996264)"/>
      </g>
     </g>
    </g>
    <g id="xtick_3">
     <g id="line2d_5">
      <path d="M 80.588927 141.749717 
L 80.588927 15.722463 
" clip-path="url(#p43f2a13f81)" style="fill: none; stroke-dasharray: 0.8,1.32; stroke-dashoffset: 0; stroke: #000000; stroke-width: 0.8"/>
     </g>
     <g id="line2d_6">
      <g>
       <use xlink:href="#m175a79c2f4" x="80.588927" y="141.749717" style="stroke: #000000"/>
      </g>
     </g>
     <g id="text_3">
      <!-- 2025-07-21 -->
      <g transform="translate(50.748506 166.585341) rotate(-30) scale(0.07634 -0.07634)">
       <defs>
        <path id="LinLibertineT-31" d="M 1843 793 
L 1843 3014 
C 1843 3398 1850 3789 1862 3872 
C 1862 3904 1850 3904 1824 3904 
C 1472 3686 1133 3526 570 3264 
C 582 3193 608 3129 666 3091 
C 960 3212 1101 3251 1222 3251 
C 1331 3251 1350 3097 1350 2880 
L 1350 793 
C 1350 262 1178 230 730 211 
C 691 172 691 38 730 0 
C 1043 6 1274 12 1619 12 
C 1926 12 2080 6 2400 0 
C 2438 38 2438 172 2400 211 
C 1952 230 1843 262 1843 793 
z
" transform="scale(0.015625)"/>
       </defs>
       <use xlink:href="#LinLibertineT-32" transform="scale(0.996264)"/>
       <use xlink:href="#LinLibertineT-30" transform="translate(46.326292 0) scale(0.996264)"/>
       <use xlink:href="#LinLibertineT-32" transform="translate(92.652583 0) scale(0.996264)"/>
       <use xlink:href="#LinLibertineT-35" transform="translate(138.978875 0) scale(0.996264)"/>
       <use xlink:href="#LinLibertineT-2d" transform="translate(185.305167 0) scale(0.996264)"/>
       <use xlink:href="#LinLibertineT-30" transform="translate(218.978908 0) scale(0.996264)"/>
       <use xlink:href="#LinLibertineT-37" transform="translate(265.3052 0) scale(0.996264)"/>
       <use xlink:href="#LinLibertineT-2d" transform="translate(311.631492 0) scale(0.996264)"/>
       <use xlink:href="#LinLibertineT-32" transform="translate(345.305234 0) scale(0.996264)"/>
       <use xlink:href="#LinLibertineT-31" transform="translate(391.631525 0) scale(0.996264)"/>
      </g>
     </g>
    </g>
    <g id="xtick_4">
     <g id="line2d_7">
      <path d="M 98.383183 141.749717 
L 98.383183 15.722463 
" clip-path="url(#p43f2a13f81)" style="fill: none; stroke-dasharray: 0.8,1.32; stroke-dashoffset: 0; stroke: #000000; stroke-width: 0.8"/>
     </g>
     <g id="line2d_8">
      <g>
       <use xlink:href="#m175a79c2f4" x="98.383183" y="141.749717" style="stroke: #000000"/>
      </g>
     </g>
     <g id="text_4">
      <!-- 2025-08-04 -->
      <g transform="translate(68.542762 166.585341) rotate(-30) scale(0.07634 -0.07634)">
       <defs>
        <path id="LinLibertineT-38" d="M 1498 3679 
C 1914 3679 2067 3405 2067 3110 
C 2067 2764 1728 2476 1555 2348 
L 1357 2470 
C 954 2732 909 2944 909 3142 
C 909 3437 1114 3679 1498 3679 
z
M 2515 3104 
C 2515 3565 2157 3904 1530 3904 
C 877 3904 454 3513 454 3020 
C 454 2662 627 2400 1018 2156 
L 1184 2054 
C 998 1958 826 1843 666 1702 
C 403 1472 294 1184 294 934 
C 294 281 755 -64 1434 -64 
C 2272 -64 2682 550 2682 1036 
C 2682 1408 2522 1734 2182 1939 
L 1728 2214 
C 2029 2361 2515 2694 2515 3104 
z
M 1446 160 
C 1158 160 723 358 723 934 
C 723 1126 806 1574 1357 1939 
L 1658 1760 
C 2054 1516 2214 1216 2214 908 
C 2214 268 1734 160 1446 160 
z
" transform="scale(0.015625)"/>
        <path id="LinLibertineT-34" d="M 1734 3246 
L 1734 1408 
L 512 1408 
C 838 1931 1293 2646 1734 3246 
z
M 2752 1408 
L 2221 1408 
L 2221 3272 
C 2221 3591 2221 3840 2234 3891 
L 2221 3904 
L 2016 3904 
C 1971 3904 1939 3865 1914 3833 
C 1510 3342 768 2288 179 1375 
C 198 1279 237 1107 429 1107 
L 1734 1107 
L 1734 522 
C 1734 230 1491 230 1216 211 
C 1178 172 1178 38 1216 0 
C 1421 6 1677 12 1971 12 
C 2221 12 2464 6 2669 0 
C 2707 38 2707 172 2669 211 
C 2355 236 2221 223 2221 522 
L 2221 1107 
L 2662 1107 
C 2752 1107 2848 1228 2848 1305 
C 2848 1369 2822 1408 2752 1408 
z
" transform="scale(0.015625)"/>
       </defs>
       <use xlink:href="#LinLibertineT-32" transform="scale(0.996264)"/>
       <use xlink:href="#LinLibertineT-30" transform="translate(46.326292 0) scale(0.996264)"/>
       <use xlink:href="#LinLibertineT-32" transform="translate(92.652583 0) scale(0.996264)"/>
       <use xlink:href="#LinLibertineT-35" transform="translate(138.978875 0) scale(0.996264)"/>
       <use xlink:href="#LinLibertineT-2d" transform="translate(185.305167 0) scale(0.996264)"/>
       <use xlink:href="#LinLibertineT-30" transform="translate(218.978908 0) scale(0.996264)"/>
       <use xlink:href="#LinLibertineT-38" transform="translate(265.3052 0) scale(0.996264)"/>
       <use xlink:href="#LinLibertineT-2d" transform="translate(311.631492 0) scale(0.996264)"/>
       <use xlink:href="#LinLibertineT-30" transform="translate(345.305234 0) scale(0.996264)"/>
       <use xlink:href="#LinLibertineT-34" transform="translate(391.631525 0) scale(0.996264)"/>
      </g>
     </g>
    </g>
    <g id="xtick_5">
     <g id="line2d_9">
      <path d="M 116.177439 141.749717 
L 116.177439 15.722463 
" clip-path="url(#p43f2a13f81)" style="fill: none; stroke-dasharray: 0.8,1.32; stroke-dashoffset: 0; stroke: #000000; stroke-width: 0.8"/>
     </g>
     <g id="line2d_10">
      <g>
       <use xlink:href="#m175a79c2f4" x="116.177439" y="141.749717" style="stroke: #000000"/>
      </g>
     </g>
     <g id="text_5">
      <!-- 2025-08-18 -->
      <g transform="translate(86.337018 166.585341) rotate(-30) scale(0.07634 -0.07634)">
       <use xlink:href="#LinLibertineT-32" transform="scale(0.996264)"/>
       <use xlink:href="#LinLibertineT-30" transform="translate(46.326292 0) scale(0.996264)"/>
       <use xlink:href="#LinLibertineT-32" transform="translate(92.652583 0) scale(0.996264)"/>
       <use xlink:href="#LinLibertineT-35" transform="translate(138.978875 0) scale(0.996264)"/>
       <use xlink:href="#LinLibertineT-2d" transform="translate(185.305167 0) scale(0.996264)"/>
       <use xlink:href="#LinLibertineT-30" transform="translate(218.978908 0) scale(0.996264)"/>
       <use xlink:href="#LinLibertineT-38" transform="translate(265.3052 0) scale(0.996264)"/>
       <use xlink:href="#LinLibertineT-2d" transform="translate(311.631492 0) scale(0.996264)"/>
       <use xlink:href="#LinLibertineT-31" transform="translate(345.305234 0) scale(0.996264)"/>
       <use xlink:href="#LinLibertineT-38" transform="translate(391.631525 0) scale(0.996264)"/>
      </g>
     </g>
    </g>
    <g id="xtick_6">
     <g id="line2d_11">
      <path d="M 133.971695 141.749717 
L 133.971695 15.722463 
" clip-path="url(#p43f2a13f81)" style="fill: none; stroke-dasharray: 0.8,1.32; stroke-dashoffset: 0; stroke: #000000; stroke-width: 0.8"/>
     </g>
     <g id="line2d_12">
      <g>
       <use xlink:href="#m175a79c2f4" x="133.971695" y="141.749717" style="stroke: #000000"/>
      </g>
     </g>
     <g id="text_6">
      <!-- 2025-09-01 -->
      <g transform="translate(104.131274 166.585341) rotate(-30) scale(0.07634 -0.07634)">
       <defs>
        <path id="LinLibertineT-39" d="M 2150 1874 
C 1939 1734 1728 1728 1619 1728 
C 992 1728 851 2340 851 2659 
C 851 3361 1120 3679 1434 3679 
C 1837 3679 2202 3463 2202 2372 
C 2202 2231 2189 2059 2150 1874 
z
M 2093 1644 
C 1920 1064 1510 420 659 102 
C 659 25 685 -32 736 -64 
C 1382 127 1779 395 2138 809 
C 2534 1268 2733 1849 2733 2353 
C 2733 3648 1997 3904 1504 3904 
C 666 3904 320 3093 320 2544 
C 320 1995 614 1503 1485 1503 
C 1651 1503 1901 1555 2093 1644 
z
" transform="scale(0.015625)"/>
       </defs>
       <use xlink:href="#LinLibertineT-32" transform="scale(0.996264)"/>
       <use xlink:href="#LinLibertineT-30" transform="translate(46.326292 0) scale(0.996264)"/>
       <use xlink:href="#LinLibertineT-32" transform="translate(92.652583 0) scale(0.996264)"/>
       <use xlink:href="#LinLibertineT-35" transform="translate(138.978875 0) scale(0.996264)"/>
       <use xlink:href="#LinLibertineT-2d" transform="translate(185.305167 0) scale(0.996264)"/>
       <use xlink:href="#LinLibertineT-30" transform="translate(218.978908 0) scale(0.996264)"/>
       <use xlink:href="#LinLibertineT-39" transform="translate(265.3052 0) scale(0.996264)"/>
       <use xlink:href="#LinLibertineT-2d" transform="translate(311.631492 0) scale(0.996264)"/>
       <use xlink:href="#LinLibertineT-30" transform="translate(345.305234 0) scale(0.996264)"/>
       <use xlink:href="#LinLibertineT-31" transform="translate(391.631525 0) scale(0.996264)"/>
      </g>
     </g>
    </g>
    <g id="xtick_7">
     <g id="line2d_13">
      <path d="M 151.765952 141.749717 
L 151.765952 15.722463 
" clip-path="url(#p43f2a13f81)" style="fill: none; stroke-dasharray: 0.8,1.32; stroke-dashoffset: 0; stroke: #000000; stroke-width: 0.8"/>
     </g>
     <g id="line2d_14">
      <g>
       <use xlink:href="#m175a79c2f4" x="151.765952" y="141.749717" style="stroke: #000000"/>
      </g>
     </g>
     <g id="text_7">
      <!-- 2025-09-15 -->
      <g transform="translate(121.92553 166.585341) rotate(-30) scale(0.07634 -0.07634)">
       <use xlink:href="#LinLibertineT-32" transform="scale(0.996264)"/>
       <use xlink:href="#LinLibertineT-30" transform="translate(46.326292 0) scale(0.996264)"/>
       <use xlink:href="#LinLibertineT-32" transform="translate(92.652583 0) scale(0.996264)"/>
       <use xlink:href="#LinLibertineT-35" transform="translate(138.978875 0) scale(0.996264)"/>
       <use xlink:href="#LinLibertineT-2d" transform="translate(185.305167 0) scale(0.996264)"/>
       <use xlink:href="#LinLibertineT-30" transform="translate(218.978908 0) scale(0.996264)"/>
       <use xlink:href="#LinLibertineT-39" transform="translate(265.3052 0) scale(0.996264)"/>
       <use xlink:href="#LinLibertineT-2d" transform="translate(311.631492 0) scale(0.996264)"/>
       <use xlink:href="#LinLibertineT-31" transform="translate(345.305234 0) scale(0.996264)"/>
       <use xlink:href="#LinLibertineT-35" transform="translate(391.631525 0) scale(0.996264)"/>
      </g>
     </g>
    </g>
    <g id="xtick_8">
     <g id="line2d_15">
      <path d="M 169.560208 141.749717 
L 169.560208 15.722463 
" clip-path="url(#p43f2a13f81)" style="fill: none; stroke-dasharray: 0.8,1.32; stroke-dashoffset: 0; stroke: #000000; stroke-width: 0.8"/>
     </g>
     <g id="line2d_16">
      <g>
       <use xlink:href="#m175a79c2f4" x="169.560208" y="141.749717" style="stroke: #000000"/>
      </g>
     </g>
     <g id="text_8">
      <!-- 2025-09-29 -->
      <g transform="translate(139.719786 166.585341) rotate(-30) scale(0.07634 -0.07634)">
       <use xlink:href="#LinLibertineT-32" transform="scale(0.996264)"/>
       <use xlink:href="#LinLibertineT-30" transform="translate(46.326292 0) scale(0.996264)"/>
       <use xlink:href="#LinLibertineT-32" transform="translate(92.652583 0) scale(0.996264)"/>
       <use xlink:href="#LinLibertineT-35" transform="translate(138.978875 0) scale(0.996264)"/>
       <use xlink:href="#LinLibertineT-2d" transform="translate(185.305167 0) scale(0.996264)"/>
       <use xlink:href="#LinLibertineT-30" transform="translate(218.978908 0) scale(0.996264)"/>
       <use xlink:href="#LinLibertineT-39" transform="translate(265.3052 0) scale(0.996264)"/>
       <use xlink:href="#LinLibertineT-2d" transform="translate(311.631492 0) scale(0.996264)"/>
       <use xlink:href="#LinLibertineT-32" transform="translate(345.305234 0) scale(0.996264)"/>
       <use xlink:href="#LinLibertineT-39" transform="translate(391.631525 0) scale(0.996264)"/>
      </g>
     </g>
    </g>
    <g id="xtick_9">
     <g id="line2d_17">
      <path d="M 187.354464 141.749717 
L 187.354464 15.722463 
" clip-path="url(#p43f2a13f81)" style="fill: none; stroke-dasharray: 0.8,1.32; stroke-dashoffset: 0; stroke: #000000; stroke-width: 0.8"/>
     </g>
     <g id="line2d_18">
      <g>
       <use xlink:href="#m175a79c2f4" x="187.354464" y="141.749717" style="stroke: #000000"/>
      </g>
     </g>
     <g id="text_9">
      <!-- 2025-10-13 -->
      <g transform="translate(157.514042 166.585341) rotate(-30) scale(0.07634 -0.07634)">
       <use xlink:href="#LinLibertineT-32" transform="scale(0.996264)"/>
       <use xlink:href="#LinLibertineT-30" transform="translate(46.326292 0) scale(0.996264)"/>
       <use xlink:href="#LinLibertineT-32" transform="translate(92.652583 0) scale(0.996264)"/>
       <use xlink:href="#LinLibertineT-35" transform="translate(138.978875 0) scale(0.996264)"/>
       <use xlink:href="#LinLibertineT-2d" transform="translate(185.305167 0) scale(0.996264)"/>
       <use xlink:href="#LinLibertineT-31" transform="translate(218.978908 0) scale(0.996264)"/>
       <use xlink:href="#LinLibertineT-30" transform="translate(265.3052 0) scale(0.996264)"/>
       <use xlink:href="#LinLibertineT-2d" transform="translate(311.631492 0) scale(0.996264)"/>
       <use xlink:href="#LinLibertineT-31" transform="translate(345.305234 0) scale(0.996264)"/>
       <use xlink:href="#LinLibertineT-33" transform="translate(391.631525 0) scale(0.996264)"/>
      </g>
     </g>
    </g>
    <g id="xtick_10">
     <g id="line2d_19">
      <path d="M 205.14872 141.749717 
L 205.14872 15.722463 
" clip-path="url(#p43f2a13f81)" style="fill: none; stroke-dasharray: 0.8,1.32; stroke-dashoffset: 0; stroke: #000000; stroke-width: 0.8"/>
     </g>
     <g id="line2d_20">
      <g>
       <use xlink:href="#m175a79c2f4" x="205.14872" y="141.749717" style="stroke: #000000"/>
      </g>
     </g>
     <g id="text_10">
      <!-- 2025-10-27 -->
      <g transform="translate(175.308298 166.585341) rotate(-30) scale(0.07634 -0.07634)">
       <use xlink:href="#LinLibertineT-32" transform="scale(0.996264)"/>
       <use xlink:href="#LinLibertineT-30" transform="translate(46.326292 0) scale(0.996264)"/>
       <use xlink:href="#LinLibertineT-32" transform="translate(92.652583 0) scale(0.996264)"/>
       <use xlink:href="#LinLibertineT-35" transform="translate(138.978875 0) scale(0.996264)"/>
       <use xlink:href="#LinLibertineT-2d" transform="translate(185.305167 0) scale(0.996264)"/>
       <use xlink:href="#LinLibertineT-31" transform="translate(218.978908 0) scale(0.996264)"/>
       <use xlink:href="#LinLibertineT-30" transform="translate(265.3052 0) scale(0.996264)"/>
       <use xlink:href="#LinLibertineT-2d" transform="translate(311.631492 0) scale(0.996264)"/>
       <use xlink:href="#LinLibertineT-32" transform="translate(345.305234 0) scale(0.996264)"/>
       <use xlink:href="#LinLibertineT-37" transform="translate(391.631525 0) scale(0.996264)"/>
      </g>
     </g>
    </g>
    <g id="xtick_11">
     <g id="line2d_21">
      <path d="M 222.942976 141.749717 
L 222.942976 15.722463 
" clip-path="url(#p43f2a13f81)" style="fill: none; stroke-dasharray: 0.8,1.32; stroke-dashoffset: 0; stroke: #000000; stroke-width: 0.8"/>
     </g>
     <g id="line2d_22">
      <g>
       <use xlink:href="#m175a79c2f4" x="222.942976" y="141.749717" style="stroke: #000000"/>
      </g>
     </g>
     <g id="text_11">
      <!-- 2025-11-10 -->
      <g transform="translate(193.102554 166.585341) rotate(-30) scale(0.07634 -0.07634)">
       <use xlink:href="#LinLibertineT-32" transform="scale(0.996264)"/>
       <use xlink:href="#LinLibertineT-30" transform="translate(46.326292 0) scale(0.996264)"/>
       <use xlink:href="#LinLibertineT-32" transform="translate(92.652583 0) scale(0.996264)"/>
       <use xlink:href="#LinLibertineT-35" transform="translate(138.978875 0) scale(0.996264)"/>
       <use xlink:href="#LinLibertineT-2d" transform="translate(185.305167 0) scale(0.996264)"/>
       <use xlink:href="#LinLibertineT-31" transform="translate(218.978908 0) scale(0.996264)"/>
       <use xlink:href="#LinLibertineT-31" transform="translate(265.3052 0) scale(0.996264)"/>
       <use xlink:href="#LinLibertineT-2d" transform="translate(311.631492 0) scale(0.996264)"/>
       <use xlink:href="#LinLibertineT-31" transform="translate(345.305234 0) scale(0.996264)"/>
       <use xlink:href="#LinLibertineT-30" transform="translate(391.631525 0) scale(0.996264)"/>
      </g>
     </g>
    </g>
    <g id="xtick_12">
     <g id="line2d_23">
      <path d="M 240.737232 141.749717 
L 240.737232 15.722463 
" clip-path="url(#p43f2a13f81)" style="fill: none; stroke-dasharray: 0.8,1.32; stroke-dashoffset: 0; stroke: #000000; stroke-width: 0.8"/>
     </g>
     <g id="line2d_24">
      <g>
       <use xlink:href="#m175a79c2f4" x="240.737232" y="141.749717" style="stroke: #000000"/>
      </g>
     </g>
     <g id="text_12">
      <!-- 2025-11-24 -->
      <g transform="translate(210.89681 166.585341) rotate(-30) scale(0.07634 -0.07634)">
       <use xlink:href="#LinLibertineT-32" transform="scale(0.996264)"/>
       <use xlink:href="#LinLibertineT-30" transform="translate(46.326292 0) scale(0.996264)"/>
       <use xlink:href="#LinLibertineT-32" transform="translate(92.652583 0) scale(0.996264)"/>
       <use xlink:href="#LinLibertineT-35" transform="translate(138.978875 0) scale(0.996264)"/>
       <use xlink:href="#LinLibertineT-2d" transform="translate(185.305167 0) scale(0.996264)"/>
       <use xlink:href="#LinLibertineT-31" transform="translate(218.978908 0) scale(0.996264)"/>
       <use xlink:href="#LinLibertineT-31" transform="translate(265.3052 0) scale(0.996264)"/>
       <use xlink:href="#LinLibertineT-2d" transform="translate(311.631492 0) scale(0.996264)"/>
       <use xlink:href="#LinLibertineT-32" transform="translate(345.305234 0) scale(0.996264)"/>
       <use xlink:href="#LinLibertineT-34" transform="translate(391.631525 0) scale(0.996264)"/>
      </g>
     </g>
    </g>
    <g id="xtick_13">
     <g id="line2d_25">
      <path d="M 258.531488 141.749717 
L 258.531488 15.722463 
" clip-path="url(#p43f2a13f81)" style="fill: none; stroke-dasharray: 0.8,1.32; stroke-dashoffset: 0; stroke: #000000; stroke-width: 0.8"/>
     </g>
     <g id="line2d_26">
      <g>
       <use xlink:href="#m175a79c2f4" x="258.531488" y="141.749717" style="stroke: #000000"/>
      </g>
     </g>
     <g id="text_13">
      <!-- 2025-12-08 -->
      <g transform="translate(228.691066 166.585341) rotate(-30) scale(0.07634 -0.07634)">
       <use xlink:href="#LinLibertineT-32" transform="scale(0.996264)"/>
       <use xlink:href="#LinLibertineT-30" transform="translate(46.326292 0) scale(0.996264)"/>
       <use xlink:href="#LinLibertineT-32" transform="translate(92.652583 0) scale(0.996264)"/>
       <use xlink:href="#LinLibertineT-35" transform="translate(138.978875 0) scale(0.996264)"/>
       <use xlink:href="#LinLibertineT-2d" transform="translate(185.305167 0) scale(0.996264)"/>
       <use xlink:href="#LinLibertineT-31" transform="translate(218.978908 0) scale(0.996264)"/>
       <use xlink:href="#LinLibertineT-32" transform="translate(265.3052 0) scale(0.996264)"/>
       <use xlink:href="#LinLibertineT-2d" transform="translate(311.631492 0) scale(0.996264)"/>
       <use xlink:href="#LinLibertineT-30" transform="translate(345.305234 0) scale(0.996264)"/>
       <use xlink:href="#LinLibertineT-38" transform="translate(391.631525 0) scale(0.996264)"/>
      </g>
     </g>
    </g>
    <g id="xtick_14">
     <g id="line2d_27">
      <path d="M 276.325744 141.749717 
L 276.325744 15.722463 
" clip-path="url(#p43f2a13f81)" style="fill: none; stroke-dasharray: 0.8,1.32; stroke-dashoffset: 0; stroke: #000000; stroke-width: 0.8"/>
     </g>
     <g id="line2d_28">
      <g>
       <use xlink:href="#m175a79c2f4" x="276.325744" y="141.749717" style="stroke: #000000"/>
      </g>
     </g>
     <g id="text_14">
      <!-- 2025-12-22 -->
      <g transform="translate(246.485322 166.585341) rotate(-30) scale(0.07634 -0.07634)">
       <use xlink:href="#LinLibertineT-32" transform="scale(0.996264)"/>
       <use xlink:href="#LinLibertineT-30" transform="translate(46.326292 0) scale(0.996264)"/>
       <use xlink:href="#LinLibertineT-32" transform="translate(92.652583 0) scale(0.996264)"/>
       <use xlink:href="#LinLibertineT-35" transform="translate(138.978875 0) scale(0.996264)"/>
       <use xlink:href="#LinLibertineT-2d" transform="translate(185.305167 0) scale(0.996264)"/>
       <use xlink:href="#LinLibertineT-31" transform="translate(218.978908 0) scale(0.996264)"/>
       <use xlink:href="#LinLibertineT-32" transform="translate(265.3052 0) scale(0.996264)"/>
       <use xlink:href="#LinLibertineT-2d" transform="translate(311.631492 0) scale(0.996264)"/>
       <use xlink:href="#LinLibertineT-32" transform="translate(345.305234 0) scale(0.996264)"/>
       <use xlink:href="#LinLibertineT-32" transform="translate(391.631525 0) scale(0.996264)"/>
      </g>
     </g>
    </g>
    <g id="xtick_15">
     <g id="line2d_29">
      <path d="M 294.12 141.749717 
L 294.12 15.722463 
" clip-path="url(#p43f2a13f81)" style="fill: none; stroke-dasharray: 0.8,1.32; stroke-dashoffset: 0; stroke: #000000; stroke-width: 0.8"/>
     </g>
     <g id="line2d_30">
      <g>
       <use xlink:href="#m175a79c2f4" x="294.12" y="141.749717" style="stroke: #000000"/>
      </g>
     </g>
     <g id="text_15">
      <!-- 2026-01-05 -->
      <g transform="translate(264.279578 166.585341) rotate(-30) scale(0.07634 -0.07634)">
       <use xlink:href="#LinLibertineT-32" transform="scale(0.996264)"/>
       <use xlink:href="#LinLibertineT-30" transform="translate(46.326292 0) scale(0.996264)"/>
       <use xlink:href="#LinLibertineT-32" transform="translate(92.652583 0) scale(0.996264)"/>
       <use xlink:href="#LinLibertineT-36" transform="translate(138.978875 0) scale(0.996264)"/>
       <use xlink:href="#LinLibertineT-2d" transform="translate(185.305167 0) scale(0.996264)"/>
       <use xlink:href="#LinLibertineT-30" transform="translate(218.978908 0) scale(0.996264)"/>
       <use xlink:href="#LinLibertineT-31" transform="translate(265.3052 0) scale(0.996264)"/>
       <use xlink:href="#LinLibertineT-2d" transform="translate(311.631492 0) scale(0.996264)"/>
       <use xlink:href="#LinLibertineT-30" transform="translate(345.305234 0) scale(0.996264)"/>
       <use xlink:href="#LinLibertineT-35" transform="translate(391.631525 0) scale(0.996264)"/>
      </g>
     </g>
    </g>
   </g>
   <g id="matplotlib.axis_2">
    <g id="ytick_1">
     <g id="line2d_31">
      <path d="M 45.000415 141.749717 
L 294.12 141.749717 
" clip-path="url(#p43f2a13f81)" style="fill: none; stroke-dasharray: 0.8,1.32; stroke-dashoffset: 0; stroke: #000000; stroke-width: 0.8"/>
     </g>
     <g id="line2d_32">
      <defs>
       <path id="mdb179abf1f" d="M 0 0 
L 3 0 
" style="stroke: #000000"/>
      </defs>
      <g>
       <use xlink:href="#mdb179abf1f" x="45.000415" y="141.749717" style="stroke: #000000"/>
      </g>
     </g>
     <g id="text_16">
      <!-- $\mathdefault{10^{0}}$ -->
      <g transform="translate(26.173142 145.59218) scale(0.11 -0.11)">
       <defs>
        <path id="CMR17-31" d="M 1702 4083 
C 1702 4217 1696 4224 1606 4224 
C 1357 3927 979 3833 621 3820 
C 602 3820 570 3820 563 3808 
C 557 3795 557 3782 557 3648 
C 755 3648 1088 3686 1344 3839 
L 1344 467 
C 1344 243 1331 166 781 166 
L 589 166 
L 589 0 
C 896 6 1216 12 1523 12 
C 1830 12 2150 6 2458 0 
L 2458 166 
L 2266 166 
C 1715 166 1702 236 1702 467 
L 1702 4083 
z
" transform="scale(0.015625)"/>
        <path id="CMR17-30" d="M 2688 2038 
C 2688 2430 2682 3099 2413 3613 
C 2176 4063 1798 4224 1466 4224 
C 1158 4224 768 4082 525 3620 
C 269 3137 243 2539 243 2038 
C 243 1671 250 1112 448 623 
C 723 -39 1216 -128 1466 -128 
C 1760 -128 2208 -7 2470 604 
C 2662 1048 2688 1568 2688 2038 
z
M 1466 -26 
C 1056 -26 813 328 723 816 
C 653 1196 653 1749 653 2109 
C 653 2604 653 3015 736 3407 
C 858 3954 1216 4121 1466 4121 
C 1728 4121 2067 3947 2189 3420 
C 2272 3054 2278 2623 2278 2109 
C 2278 1691 2278 1176 2202 797 
C 2067 96 1690 -26 1466 -26 
z
" transform="scale(0.015625)"/>
       </defs>
       <use xlink:href="#CMR17-31" transform="scale(0.996264)"/>
       <use xlink:href="#CMR17-30" transform="translate(45.690477 0) scale(0.996264)"/>
       <use xlink:href="#CMR17-30" transform="translate(91.380954 36.153639) scale(0.697382)"/>
      </g>
     </g>
    </g>
    <g id="ytick_2">
     <g id="line2d_33">
      <path d="M 45.000415 110.242904 
L 294.12 110.242904 
" clip-path="url(#p43f2a13f81)" style="fill: none; stroke-dasharray: 0.8,1.32; stroke-dashoffset: 0; stroke: #000000; stroke-width: 0.8"/>
     </g>
     <g id="line2d_34">
      <g>
       <use xlink:href="#mdb179abf1f" x="45.000415" y="110.242904" style="stroke: #000000"/>
      </g>
     </g>
     <g id="text_17">
      <!-- $\mathdefault{10^{1}}$ -->
      <g transform="translate(26.173142 114.085367) scale(0.11 -0.11)">
       <use xlink:href="#CMR17-31" transform="scale(0.996264)"/>
       <use xlink:href="#CMR17-30" transform="translate(45.690477 0) scale(0.996264)"/>
       <use xlink:href="#CMR17-31" transform="translate(91.380954 36.153639) scale(0.697382)"/>
      </g>
     </g>
    </g>
    <g id="ytick_3">
     <g id="line2d_35">
      <path d="M 45.000415 78.73609 
L 294.12 78.73609 
" clip-path="url(#p43f2a13f81)" style="fill: none; stroke-dasharray: 0.8,1.32; stroke-dashoffset: 0; stroke: #000000; stroke-width: 0.8"/>
     </g>
     <g id="line2d_36">
      <g>
       <use xlink:href="#mdb179abf1f" x="45.000415" y="78.73609" style="stroke: #000000"/>
      </g>
     </g>
     <g id="text_18">
      <!-- $\mathdefault{10^{2}}$ -->
      <g transform="translate(26.173142 82.578553) scale(0.11 -0.11)">
       <defs>
        <path id="CMR17-32" d="M 2669 990 
L 2554 990 
C 2490 537 2438 460 2413 422 
C 2381 371 1920 371 1830 371 
L 602 371 
C 832 620 1280 1073 1824 1596 
C 2214 1966 2669 2400 2669 3033 
C 2669 3788 2067 4224 1395 4224 
C 691 4224 262 3603 262 3027 
C 262 2777 448 2745 525 2745 
C 589 2745 781 2783 781 3007 
C 781 3206 614 3264 525 3264 
C 486 3264 448 3257 422 3244 
C 544 3788 915 4057 1306 4057 
C 1862 4057 2227 3616 2227 3033 
C 2227 2477 1901 1998 1536 1583 
L 262 147 
L 262 0 
L 2515 0 
L 2669 990 
z
" transform="scale(0.015625)"/>
       </defs>
       <use xlink:href="#CMR17-31" transform="scale(0.996264)"/>
       <use xlink:href="#CMR17-30" transform="translate(45.690477 0) scale(0.996264)"/>
       <use xlink:href="#CMR17-32" transform="translate(91.380954 36.153639) scale(0.697382)"/>
      </g>
     </g>
    </g>
    <g id="ytick_4">
     <g id="line2d_37">
      <path d="M 45.000415 47.229277 
L 294.12 47.229277 
" clip-path="url(#p43f2a13f81)" style="fill: none; stroke-dasharray: 0.8,1.32; stroke-dashoffset: 0; stroke: #000000; stroke-width: 0.8"/>
     </g>
     <g id="line2d_38">
      <g>
       <use xlink:href="#mdb179abf1f" x="45.000415" y="47.229277" style="stroke: #000000"/>
      </g>
     </g>
     <g id="text_19">
      <!-- $\mathdefault{10^{3}}$ -->
      <g transform="translate(26.173142 51.07174) scale(0.11 -0.11)">
       <defs>
        <path id="CMR17-33" d="M 1414 2176 
C 1984 2176 2234 1673 2234 1094 
C 2234 322 1824 25 1453 25 
C 1114 25 563 193 390 691 
C 422 678 454 678 486 678 
C 640 678 755 780 755 947 
C 755 1132 614 1216 486 1216 
C 378 1216 211 1164 211 927 
C 211 335 787 -128 1466 -128 
C 2176 -128 2720 432 2720 1087 
C 2720 1718 2208 2176 1600 2246 
C 2086 2347 2554 2776 2554 3353 
C 2554 3856 2048 4224 1472 4224 
C 890 4224 378 3862 378 3347 
C 378 3123 544 3084 627 3084 
C 762 3084 877 3167 877 3334 
C 877 3500 762 3584 627 3584 
C 602 3584 570 3584 544 3571 
C 730 3999 1235 4076 1459 4076 
C 1683 4076 2106 3966 2106 3347 
C 2106 3167 2080 2851 1862 2574 
C 1670 2329 1453 2316 1242 2297 
C 1210 2297 1062 2284 1037 2284 
C 992 2278 966 2272 966 2227 
C 966 2182 973 2176 1101 2176 
L 1414 2176 
z
" transform="scale(0.015625)"/>
       </defs>
       <use xlink:href="#CMR17-31" transform="scale(0.996264)"/>
       <use xlink:href="#CMR17-30" transform="translate(45.690477 0) scale(0.996264)"/>
       <use xlink:href="#CMR17-33" transform="translate(91.380954 36.153639) scale(0.697382)"/>
      </g>
     </g>
    </g>
    <g id="ytick_5">
     <g id="line2d_39">
      <path d="M 45.000415 15.722463 
L 294.12 15.722463 
" clip-path="url(#p43f2a13f81)" style="fill: none; stroke-dasharray: 0.8,1.32; stroke-dashoffset: 0; stroke: #000000; stroke-width: 0.8"/>
     </g>
     <g id="line2d_40">
      <g>
       <use xlink:href="#mdb179abf1f" x="45.000415" y="15.722463" style="stroke: #000000"/>
      </g>
     </g>
     <g id="text_20">
      <!-- $\mathdefault{10^{4}}$ -->
      <g transform="translate(26.173142 19.564927) scale(0.11 -0.11)">
       <defs>
        <path id="CMR17-34" d="M 2150 4147 
C 2150 4281 2144 4288 2029 4288 
L 128 1254 
L 128 1088 
L 1779 1088 
L 1779 460 
C 1779 230 1766 166 1318 166 
L 1197 166 
L 1197 0 
C 1402 12 1747 12 1965 12 
C 2182 12 2528 12 2733 0 
L 2733 166 
L 2611 166 
C 2163 166 2150 230 2150 460 
L 2150 1088 
L 2803 1088 
L 2803 1254 
L 2150 1254 
L 2150 4147 
z
M 1798 3723 
L 1798 1254 
L 256 1254 
L 1798 3723 
z
" transform="scale(0.015625)"/>
       </defs>
       <use xlink:href="#CMR17-31" transform="scale(0.996264)"/>
       <use xlink:href="#CMR17-30" transform="translate(45.690477 0) scale(0.996264)"/>
       <use xlink:href="#CMR17-34" transform="translate(91.380954 36.153639) scale(0.697382)"/>
      </g>
     </g>
    </g>
    <g id="ytick_6">
     <g id="line2d_41">
      <defs>
       <path id="m7c3ca6de7b" d="M 0 0 
L -2 0 
" style="stroke: #000000; stroke-width: 0.6"/>
      </defs>
      <g>
       <use xlink:href="#m7c3ca6de7b" x="45.000415" y="132.265221" style="stroke: #000000; stroke-width: 0.6"/>
      </g>
     </g>
    </g>
    <g id="ytick_7">
     <g id="line2d_42">
      <g>
       <use xlink:href="#m7c3ca6de7b" x="45.000415" y="126.717147" style="stroke: #000000; stroke-width: 0.6"/>
      </g>
     </g>
    </g>
    <g id="ytick_8">
     <g id="line2d_43">
      <g>
       <use xlink:href="#m7c3ca6de7b" x="45.000415" y="122.780725" style="stroke: #000000; stroke-width: 0.6"/>
      </g>
     </g>
    </g>
    <g id="ytick_9">
     <g id="line2d_44">
      <g>
       <use xlink:href="#m7c3ca6de7b" x="45.000415" y="119.727399" style="stroke: #000000; stroke-width: 0.6"/>
      </g>
     </g>
    </g>
    <g id="ytick_10">
     <g id="line2d_45">
      <g>
       <use xlink:href="#m7c3ca6de7b" x="45.000415" y="117.232651" style="stroke: #000000; stroke-width: 0.6"/>
      </g>
     </g>
    </g>
    <g id="ytick_11">
     <g id="line2d_46">
      <g>
       <use xlink:href="#m7c3ca6de7b" x="45.000415" y="115.123371" style="stroke: #000000; stroke-width: 0.6"/>
      </g>
     </g>
    </g>
    <g id="ytick_12">
     <g id="line2d_47">
      <g>
       <use xlink:href="#m7c3ca6de7b" x="45.000415" y="113.296229" style="stroke: #000000; stroke-width: 0.6"/>
      </g>
     </g>
    </g>
    <g id="ytick_13">
     <g id="line2d_48">
      <g>
       <use xlink:href="#m7c3ca6de7b" x="45.000415" y="111.684576" style="stroke: #000000; stroke-width: 0.6"/>
      </g>
     </g>
    </g>
    <g id="ytick_14">
     <g id="line2d_49">
      <g>
       <use xlink:href="#m7c3ca6de7b" x="45.000415" y="100.758408" style="stroke: #000000; stroke-width: 0.6"/>
      </g>
     </g>
    </g>
    <g id="ytick_15">
     <g id="line2d_50">
      <g>
       <use xlink:href="#m7c3ca6de7b" x="45.000415" y="95.210333" style="stroke: #000000; stroke-width: 0.6"/>
      </g>
     </g>
    </g>
    <g id="ytick_16">
     <g id="line2d_51">
      <g>
       <use xlink:href="#m7c3ca6de7b" x="45.000415" y="91.273912" style="stroke: #000000; stroke-width: 0.6"/>
      </g>
     </g>
    </g>
    <g id="ytick_17">
     <g id="line2d_52">
      <g>
       <use xlink:href="#m7c3ca6de7b" x="45.000415" y="88.220586" style="stroke: #000000; stroke-width: 0.6"/>
      </g>
     </g>
    </g>
    <g id="ytick_18">
     <g id="line2d_53">
      <g>
       <use xlink:href="#m7c3ca6de7b" x="45.000415" y="85.725837" style="stroke: #000000; stroke-width: 0.6"/>
      </g>
     </g>
    </g>
    <g id="ytick_19">
     <g id="line2d_54">
      <g>
       <use xlink:href="#m7c3ca6de7b" x="45.000415" y="83.616557" style="stroke: #000000; stroke-width: 0.6"/>
      </g>
     </g>
    </g>
    <g id="ytick_20">
     <g id="line2d_55">
      <g>
       <use xlink:href="#m7c3ca6de7b" x="45.000415" y="81.789416" style="stroke: #000000; stroke-width: 0.6"/>
      </g>
     </g>
    </g>
    <g id="ytick_21">
     <g id="line2d_56">
      <g>
       <use xlink:href="#m7c3ca6de7b" x="45.000415" y="80.177763" style="stroke: #000000; stroke-width: 0.6"/>
      </g>
     </g>
    </g>
    <g id="ytick_22">
     <g id="line2d_57">
      <g>
       <use xlink:href="#m7c3ca6de7b" x="45.000415" y="69.251594" style="stroke: #000000; stroke-width: 0.6"/>
      </g>
     </g>
    </g>
    <g id="ytick_23">
     <g id="line2d_58">
      <g>
       <use xlink:href="#m7c3ca6de7b" x="45.000415" y="63.70352" style="stroke: #000000; stroke-width: 0.6"/>
      </g>
     </g>
    </g>
    <g id="ytick_24">
     <g id="line2d_59">
      <g>
       <use xlink:href="#m7c3ca6de7b" x="45.000415" y="59.767098" style="stroke: #000000; stroke-width: 0.6"/>
      </g>
     </g>
    </g>
    <g id="ytick_25">
     <g id="line2d_60">
      <g>
       <use xlink:href="#m7c3ca6de7b" x="45.000415" y="56.713773" style="stroke: #000000; stroke-width: 0.6"/>
      </g>
     </g>
    </g>
    <g id="ytick_26">
     <g id="line2d_61">
      <g>
       <use xlink:href="#m7c3ca6de7b" x="45.000415" y="54.219024" style="stroke: #000000; stroke-width: 0.6"/>
      </g>
     </g>
    </g>
    <g id="ytick_27">
     <g id="line2d_62">
      <g>
       <use xlink:href="#m7c3ca6de7b" x="45.000415" y="52.109744" style="stroke: #000000; stroke-width: 0.6"/>
      </g>
     </g>
    </g>
    <g id="ytick_28">
     <g id="line2d_63">
      <g>
       <use xlink:href="#m7c3ca6de7b" x="45.000415" y="50.282602" style="stroke: #000000; stroke-width: 0.6"/>
      </g>
     </g>
    </g>
    <g id="ytick_29">
     <g id="line2d_64">
      <g>
       <use xlink:href="#m7c3ca6de7b" x="45.000415" y="48.670949" style="stroke: #000000; stroke-width: 0.6"/>
      </g>
     </g>
    </g>
    <g id="ytick_30">
     <g id="line2d_65">
      <g>
       <use xlink:href="#m7c3ca6de7b" x="45.000415" y="37.744781" style="stroke: #000000; stroke-width: 0.6"/>
      </g>
     </g>
    </g>
    <g id="ytick_31">
     <g id="line2d_66">
      <g>
       <use xlink:href="#m7c3ca6de7b" x="45.000415" y="32.196706" style="stroke: #000000; stroke-width: 0.6"/>
      </g>
     </g>
    </g>
    <g id="ytick_32">
     <g id="line2d_67">
      <g>
       <use xlink:href="#m7c3ca6de7b" x="45.000415" y="28.260285" style="stroke: #000000; stroke-width: 0.6"/>
      </g>
     </g>
    </g>
    <g id="ytick_33">
     <g id="line2d_68">
      <g>
       <use xlink:href="#m7c3ca6de7b" x="45.000415" y="25.206959" style="stroke: #000000; stroke-width: 0.6"/>
      </g>
     </g>
    </g>
    <g id="ytick_34">
     <g id="line2d_69">
      <g>
       <use xlink:href="#m7c3ca6de7b" x="45.000415" y="22.71221" style="stroke: #000000; stroke-width: 0.6"/>
      </g>
     </g>
    </g>
    <g id="ytick_35">
     <g id="line2d_70">
      <g>
       <use xlink:href="#m7c3ca6de7b" x="45.000415" y="20.60293" style="stroke: #000000; stroke-width: 0.6"/>
      </g>
     </g>
    </g>
    <g id="ytick_36">
     <g id="line2d_71">
      <g>
       <use xlink:href="#m7c3ca6de7b" x="45.000415" y="18.775789" style="stroke: #000000; stroke-width: 0.6"/>
      </g>
     </g>
    </g>
    <g id="ytick_37">
     <g id="line2d_72">
      <g>
       <use xlink:href="#m7c3ca6de7b" x="45.000415" y="17.164136" style="stroke: #000000; stroke-width: 0.6"/>
      </g>
     </g>
    </g>
    <g id="text_21">
     <!-- Calling Parties -->
     <g transform="translate(19.564927 111.547002) rotate(-90) scale(0.11 -0.11)">
      <defs>
       <path id="LinLibertineT-43" d="M 2285 -64 
C 2906 -64 3475 230 3910 802 
C 3878 859 3834 898 3763 898 
C 3309 397 2874 198 2278 198 
C 1414 198 819 1174 819 2112 
C 819 2664 966 3126 1197 3415 
C 1517 3807 1888 3987 2221 3987 
C 3104 3987 3456 3460 3622 2908 
C 3699 2882 3763 2902 3834 2940 
C 3802 3274 3757 3582 3693 3935 
C 3366 3968 3078 4224 2291 4224 
C 1747 4224 1293 4025 915 3679 
C 493 3287 237 2657 237 1990 
C 237 872 909 -64 2285 -64 
z
" transform="scale(0.015625)"/>
       <path id="LinLibertineT-61" d="M 1875 1494 
L 1875 647 
C 1875 564 1837 519 1786 480 
C 1619 346 1402 198 1222 198 
C 902 198 762 455 762 654 
C 762 942 896 1237 1370 1359 
L 1875 1494 
z
M 1875 307 
C 1914 108 1984 -64 2304 -64 
C 2547 -64 2778 44 2912 172 
C 2899 249 2874 307 2803 345 
C 2758 307 2650 243 2566 243 
C 2381 243 2374 493 2374 788 
L 2374 1731 
C 2374 2643 1875 2816 1408 2816 
C 883 2816 352 2469 352 2104 
C 352 1950 429 1873 576 1873 
C 762 1873 877 2007 877 2091 
C 877 2136 870 2181 858 2206 
C 851 2226 845 2264 845 2335 
C 845 2534 1114 2604 1357 2604 
C 1574 2604 1875 2495 1875 1770 
C 1875 1725 1856 1699 1837 1693 
L 1286 1558 
C 672 1404 230 1064 230 628 
C 230 102 589 -64 1037 -64 
C 1261 -64 1453 -13 1734 204 
L 1862 307 
L 1875 307 
z
" transform="scale(0.015625)"/>
       <path id="LinLibertineT-6c" d="M 608 790 
C 608 262 538 230 147 211 
C 109 172 109 38 147 0 
C 371 6 608 12 864 12 
C 1120 12 1363 6 1574 0 
C 1613 38 1613 172 1574 211 
C 1184 230 1114 262 1114 790 
L 1114 3726 
C 1114 4140 1139 4408 1139 4408 
C 1139 4458 1114 4480 1056 4480 
C 896 4408 416 4309 160 4288 
C 147 4236 160 4134 198 4096 
C 570 4070 608 4051 608 3573 
L 608 790 
z
" transform="scale(0.015625)"/>
       <path id="LinLibertineT-69" d="M 576 3852 
C 576 3686 730 3519 883 3519 
C 1062 3519 1216 3692 1216 3827 
C 1216 3980 1082 4160 909 4160 
C 755 4160 576 4006 576 3852 
z
M 1158 785 
L 1158 2040 
C 1158 2356 1184 2769 1184 2769 
C 1184 2796 1152 2816 1101 2816 
C 922 2743 666 2683 224 2624 
C 211 2585 224 2483 237 2444 
C 589 2413 653 2375 653 2015 
L 653 785 
C 653 261 582 242 192 211 
C 154 172 154 38 192 0 
C 403 6 653 12 909 12 
C 1165 12 1408 6 1619 0 
C 1658 38 1658 172 1619 211 
C 1229 236 1158 261 1158 785 
z
" transform="scale(0.015625)"/>
       <path id="LinLibertineT-6e" d="M 1178 2298 
C 1139 2253 1101 2240 1101 2298 
C 1094 2470 1082 2719 1050 2783 
C 1037 2816 1024 2835 973 2835 
C 794 2764 627 2707 186 2649 
C 173 2611 186 2508 198 2470 
C 544 2438 614 2406 614 2036 
L 614 791 
C 614 268 550 243 166 211 
C 128 172 128 38 166 0 
C 358 6 614 12 870 12 
C 1126 12 1318 6 1510 0 
C 1549 38 1549 172 1510 211 
C 1184 243 1120 268 1120 791 
L 1120 1838 
C 1120 1972 1178 2049 1229 2106 
C 1472 2342 1760 2483 2010 2483 
C 2138 2483 2272 2400 2349 2253 
C 2413 2125 2426 1953 2426 1761 
L 2426 791 
C 2426 268 2362 243 2029 211 
C 1997 172 1997 38 2029 0 
C 2221 6 2426 12 2682 12 
C 2938 12 3168 6 3360 0 
C 3392 38 3392 172 3360 211 
C 3002 243 2931 268 2931 791 
L 2931 1742 
C 2931 2093 2906 2400 2758 2598 
C 2650 2739 2451 2816 2227 2816 
C 1914 2816 1555 2732 1178 2298 
z
" transform="scale(0.015625)"/>
       <path id="LinLibertineT-67" d="M 2042 1798 
C 2042 1208 1741 1088 1504 1088 
C 966 1088 909 1538 909 1944 
C 909 2389 1069 2617 1421 2617 
C 1824 2617 2042 2325 2042 1798 
z
M 845 -52 
C 915 -71 1018 -84 1101 -84 
C 1299 -84 1478 -64 1568 -64 
C 1888 -64 2157 -71 2342 -176 
C 2592 -319 2669 -411 2669 -581 
C 2669 -1051 1990 -1300 1414 -1300 
C 1184 -1300 646 -1110 646 -666 
C 646 -444 659 -280 845 -52 
z
M 2842 2484 
C 2963 2484 3078 2598 3078 2726 
C 3078 2860 2957 2963 2784 2963 
C 2618 2963 2310 2854 2144 2636 
C 2067 2687 1856 2816 1478 2816 
C 909 2816 384 2433 384 1849 
C 384 1506 538 1310 717 1138 
C 538 985 435 708 435 488 
C 435 256 563 76 730 -7 
C 384 -215 205 -515 205 -796 
C 205 -1364 730 -1536 1222 -1536 
C 2086 -1536 3021 -1117 3021 -411 
C 3021 -202 2925 -39 2739 115 
C 2490 320 2042 326 1805 326 
C 1690 326 1530 313 1376 294 
C 1280 288 1216 281 1184 281 
C 998 281 774 371 774 650 
C 774 779 813 915 890 1023 
C 1043 934 1222 889 1472 889 
C 2035 889 2554 1240 2554 1862 
C 2554 2160 2464 2331 2278 2522 
C 2323 2585 2451 2675 2534 2675 
C 2579 2675 2624 2655 2662 2598 
C 2688 2547 2771 2484 2842 2484 
z
" transform="scale(0.015625)"/>
       <path id="LinLibertineT-50" d="M 1210 3591 
C 1210 3779 1306 4006 1766 4006 
C 2208 4006 2650 3857 2650 3033 
C 2650 2333 2317 2048 1696 2048 
C 1536 2048 1280 2060 1210 2080 
L 1210 3591 
z
M 666 3390 
L 666 798 
C 666 262 557 230 109 211 
C 70 172 70 38 109 0 
C 397 6 710 12 941 12 
C 1165 12 1542 6 1862 0 
C 1901 38 1901 172 1862 211 
C 1363 237 1210 262 1210 798 
L 1210 1894 
C 1350 1849 1504 1830 1728 1830 
C 2893 1830 3245 2599 3245 3150 
C 3245 3532 2995 4224 1811 4224 
C 1568 4224 1190 4179 934 4179 
C 698 4179 365 4185 109 4191 
C 70 4153 70 4019 109 3980 
C 557 3960 666 3928 666 3390 
z
" transform="scale(0.015625)"/>
       <path id="LinLibertineT-72" d="M 1126 2298 
C 1114 2553 1107 2719 1075 2783 
C 1062 2816 1050 2835 998 2835 
C 819 2764 653 2707 211 2649 
C 198 2611 211 2508 224 2470 
C 570 2438 640 2406 640 2036 
L 640 791 
C 640 262 563 236 166 211 
C 128 172 128 38 166 0 
C 390 6 640 12 896 12 
C 1152 12 1446 6 1670 0 
C 1709 38 1709 172 1670 211 
C 1222 243 1146 262 1146 791 
L 1146 1679 
C 1146 1844 1222 1991 1299 2106 
C 1370 2208 1517 2419 1594 2419 
C 1651 2419 1709 2406 1760 2336 
C 1805 2272 1882 2189 1990 2189 
C 2144 2189 2291 2349 2291 2508 
C 2291 2630 2176 2816 1907 2816 
C 1606 2816 1344 2534 1197 2285 
C 1158 2215 1126 2266 1126 2298 
z
" transform="scale(0.015625)"/>
       <path id="LinLibertineT-74" d="M 275 2752 
C 186 2752 160 2675 160 2623 
L 160 2540 
C 160 2508 166 2502 192 2502 
L 570 2502 
L 570 570 
C 570 115 768 -64 1062 -64 
C 1357 -64 1677 76 1926 358 
C 1914 422 1875 461 1811 467 
C 1645 339 1453 288 1286 288 
C 1114 288 1075 480 1075 878 
L 1075 2502 
L 1741 2502 
C 1805 2502 1894 2527 1894 2585 
L 1894 2713 
C 1894 2739 1875 2752 1843 2752 
L 1075 2752 
L 1075 3001 
C 1075 3417 1101 3673 1101 3673 
C 1101 3712 1082 3731 1050 3731 
C 1024 3731 966 3705 909 3673 
C 838 3635 774 3603 691 3584 
C 614 3558 550 3539 550 3494 
C 550 3417 570 3462 570 2752 
L 275 2752 
z
" transform="scale(0.015625)"/>
       <path id="LinLibertineT-65" d="M 794 1817 
C 915 2546 1363 2604 1517 2604 
C 1760 2604 2048 2469 2048 1927 
C 2048 1869 2022 1836 1952 1836 
L 794 1817 
z
M 2470 598 
C 2234 352 2048 249 1677 249 
C 1446 249 1178 385 979 714 
C 851 928 774 1225 774 1600 
L 2477 1587 
C 2554 1587 2598 1625 2598 1696 
C 2598 2237 2406 2816 1517 2816 
C 960 2816 237 2282 237 1302 
C 237 940 326 592 538 346 
C 755 89 1056 -64 1517 -64 
C 2003 -64 2349 160 2605 495 
C 2586 559 2547 592 2470 598 
z
" transform="scale(0.015625)"/>
       <path id="LinLibertineT-73" d="M 307 885 
C 333 570 352 269 352 0 
C 416 12 480 19 512 19 
C 557 19 595 19 640 6 
C 813 -39 986 -64 1222 -64 
C 1581 -64 2240 108 2240 743 
C 2240 1180 1926 1437 1491 1597 
C 1107 1745 851 1841 851 2194 
C 851 2457 1082 2604 1299 2604 
C 1440 2604 1811 2553 1894 2008 
C 1933 1969 2061 1976 2099 2014 
C 2118 2245 2131 2482 2138 2694 
C 1939 2726 1632 2816 1299 2816 
C 826 2816 397 2508 397 2097 
C 397 1629 608 1430 1101 1225 
C 1632 1007 1754 872 1754 596 
C 1754 281 1446 147 1210 147 
C 960 147 819 230 755 301 
C 614 448 544 731 506 891 
C 467 930 346 923 307 885 
z
" transform="scale(0.015625)"/>
      </defs>
      <use xlink:href="#LinLibertineT-43" transform="scale(0.996264)"/>
      <use xlink:href="#LinLibertineT-61" transform="translate(64.358646 0) scale(0.996264)"/>
      <use xlink:href="#LinLibertineT-6c" transform="translate(109.887878 0) scale(0.996264)"/>
      <use xlink:href="#LinLibertineT-6c" transform="translate(136.189242 0) scale(0.996264)"/>
      <use xlink:href="#LinLibertineT-69" transform="translate(162.490605 0) scale(0.996264)"/>
      <use xlink:href="#LinLibertineT-6e" transform="translate(189.489351 0) scale(0.996264)"/>
      <use xlink:href="#LinLibertineT-67" transform="translate(243.486842 0) scale(0.996264)"/>
      <use xlink:href="#LinLibertineT-50" transform="translate(318.206643 0) scale(0.996264)"/>
      <use xlink:href="#LinLibertineT-61" transform="translate(372.104562 0) scale(0.996264)"/>
      <use xlink:href="#LinLibertineT-72" transform="translate(417.633794 0) scale(0.996264)"/>
      <use xlink:href="#LinLibertineT-74" transform="translate(454.694782 0) scale(0.996264)"/>
      <use xlink:href="#LinLibertineT-69" transform="translate(486.176715 0) scale(0.996264)"/>
      <use xlink:href="#LinLibertineT-65" transform="translate(513.175461 0) scale(0.996264)"/>
      <use xlink:href="#LinLibertineT-73" transform="translate(557.708413 0) scale(0.996264)"/>
     </g>
    </g>
   </g>
   <g id="line2d_73">
    <path d="M 71.676478 181 
L 71.691799 126.717147 
L 80.588927 126.717147 
L 89.486055 126.717147 
L 98.383183 122.780725 
L 107.280311 119.727399 
L 116.177439 132.265221 
L 125.074567 132.265221 
L 133.971695 132.265221 
L 142.868823 126.717147 
L 151.765952 122.780725 
L 160.66308 119.727399 
L 169.560208 126.717147 
L 178.457336 122.780725 
L 187.354464 122.780725 
L 196.251592 122.780725 
L 205.14872 122.780725 
L 214.045848 119.727399 
L 222.942976 122.780725 
L 231.840104 119.727399 
L 240.737232 119.727399 
L 249.63436 119.727399 
L 258.531488 122.780725 
L 267.428616 99.454256 
L 276.325744 98.846012 
L 285.222872 97.705082 
L 294.12 98.263659 
" clip-path="url(#p43f2a13f81)" style="fill: none; stroke: #ff0000; stroke-linecap: square"/>
    <defs>
     <path id="m230a1ba9b3" d="M 0 3 
C 0.795609 3 1.55874 2.683901 2.12132 2.12132 
C 2.683901 1.55874 3 0.795609 3 0 
C 3 -0.795609 2.683901 -1.55874 2.12132 -2.12132 
C 1.55874 -2.683901 0.795609 -3 0 -3 
C -0.795609 -3 -1.55874 -2.683901 -2.12132 -2.12132 
C -2.683901 -1.55874 -3 -0.795609 -3 0 
C -3 0.795609 -2.683901 1.55874 -2.12132 2.12132 
C -1.55874 2.683901 -0.795609 3 0 3 
z
"/>
    </defs>
    <g clip-path="url(#p43f2a13f81)">
     <use xlink:href="#m230a1ba9b3" x="68.069287" y="12961" style="fill: #ff0000"/>
     <use xlink:href="#m230a1ba9b3" x="71.691799" y="126.717147" style="fill: #ff0000"/>
     <use xlink:href="#m230a1ba9b3" x="80.588927" y="126.717147" style="fill: #ff0000"/>
     <use xlink:href="#m230a1ba9b3" x="89.486055" y="126.717147" style="fill: #ff0000"/>
     <use xlink:href="#m230a1ba9b3" x="98.383183" y="122.780725" style="fill: #ff0000"/>
     <use xlink:href="#m230a1ba9b3" x="107.280311" y="119.727399" style="fill: #ff0000"/>
     <use xlink:href="#m230a1ba9b3" x="116.177439" y="132.265221" style="fill: #ff0000"/>
     <use xlink:href="#m230a1ba9b3" x="125.074567" y="132.265221" style="fill: #ff0000"/>
     <use xlink:href="#m230a1ba9b3" x="133.971695" y="132.265221" style="fill: #ff0000"/>
     <use xlink:href="#m230a1ba9b3" x="142.868823" y="126.717147" style="fill: #ff0000"/>
     <use xlink:href="#m230a1ba9b3" x="151.765952" y="122.780725" style="fill: #ff0000"/>
     <use xlink:href="#m230a1ba9b3" x="160.66308" y="119.727399" style="fill: #ff0000"/>
     <use xlink:href="#m230a1ba9b3" x="169.560208" y="126.717147" style="fill: #ff0000"/>
     <use xlink:href="#m230a1ba9b3" x="178.457336" y="122.780725" style="fill: #ff0000"/>
     <use xlink:href="#m230a1ba9b3" x="187.354464" y="122.780725" style="fill: #ff0000"/>
     <use xlink:href="#m230a1ba9b3" x="196.251592" y="122.780725" style="fill: #ff0000"/>
     <use xlink:href="#m230a1ba9b3" x="205.14872" y="122.780725" style="fill: #ff0000"/>
     <use xlink:href="#m230a1ba9b3" x="214.045848" y="119.727399" style="fill: #ff0000"/>
     <use xlink:href="#m230a1ba9b3" x="222.942976" y="122.780725" style="fill: #ff0000"/>
     <use xlink:href="#m230a1ba9b3" x="231.840104" y="119.727399" style="fill: #ff0000"/>
     <use xlink:href="#m230a1ba9b3" x="240.737232" y="119.727399" style="fill: #ff0000"/>
     <use xlink:href="#m230a1ba9b3" x="249.63436" y="119.727399" style="fill: #ff0000"/>
     <use xlink:href="#m230a1ba9b3" x="258.531488" y="122.780725" style="fill: #ff0000"/>
     <use xlink:href="#m230a1ba9b3" x="267.428616" y="99.454256" style="fill: #ff0000"/>
     <use xlink:href="#m230a1ba9b3" x="276.325744" y="98.846012" style="fill: #ff0000"/>
     <use xlink:href="#m230a1ba9b3" x="285.222872" y="97.705082" style="fill: #ff0000"/>
     <use xlink:href="#m230a1ba9b3" x="294.12" y="98.263659" style="fill: #ff0000"/>
    </g>
   </g>
   <g id="line2d_74">
    <path d="M 45.000415 60.908029 
L 53.897543 60.908029 
L 62.794671 61.020034 
L 71.691799 61.208771 
L 80.588927 61.208771 
L 89.486055 60.982597 
L 98.383183 60.723367 
L 107.280311 59.732933 
L 116.177439 59.904619 
L 125.074567 59.496134 
L 133.971695 59.529713 
L 142.868823 59.296376 
L 151.765952 59.529713 
L 160.66308 59.732933 
L 169.560208 59.529713 
L 178.457336 59.462638 
L 187.354464 59.597118 
L 196.251592 59.939217 
L 205.14872 59.296376 
L 214.045848 59.973902 
L 222.942976 59.870109 
L 231.840104 59.870109 
L 240.737232 59.496134 
L 249.63436 59.197579 
L 258.531488 59.329467 
L 267.428616 59.597118 
L 276.325744 59.630946 
L 285.222872 59.835686 
L 294.12 59.597118 
" clip-path="url(#p43f2a13f81)" style="fill: none; stroke-dasharray: 3.7,1.6; stroke-dashoffset: 0; stroke: #0000ff"/>
    <defs>
     <path id="md6f7c1616a" d="M -3 3 
L 3 3 
L 3 -3 
L -3 -3 
z
"/>
    </defs>
    <g clip-path="url(#p43f2a13f81)">
     <use xlink:href="#md6f7c1616a" x="45.000415" y="60.908029" style="fill: #0000ff"/>
     <use xlink:href="#md6f7c1616a" x="53.897543" y="60.908029" style="fill: #0000ff"/>
     <use xlink:href="#md6f7c1616a" x="62.794671" y="61.020034" style="fill: #0000ff"/>
     <use xlink:href="#md6f7c1616a" x="71.691799" y="61.208771" style="fill: #0000ff"/>
     <use xlink:href="#md6f7c1616a" x="80.588927" y="61.208771" style="fill: #0000ff"/>
     <use xlink:href="#md6f7c1616a" x="89.486055" y="60.982597" style="fill: #0000ff"/>
     <use xlink:href="#md6f7c1616a" x="98.383183" y="60.723367" style="fill: #0000ff"/>
     <use xlink:href="#md6f7c1616a" x="107.280311" y="59.732933" style="fill: #0000ff"/>
     <use xlink:href="#md6f7c1616a" x="116.177439" y="59.904619" style="fill: #0000ff"/>
     <use xlink:href="#md6f7c1616a" x="125.074567" y="59.496134" style="fill: #0000ff"/>
     <use xlink:href="#md6f7c1616a" x="133.971695" y="59.529713" style="fill: #0000ff"/>
     <use xlink:href="#md6f7c1616a" x="142.868823" y="59.296376" style="fill: #0000ff"/>
     <use xlink:href="#md6f7c1616a" x="151.765952" y="59.529713" style="fill: #0000ff"/>
     <use xlink:href="#md6f7c1616a" x="160.66308" y="59.732933" style="fill: #0000ff"/>
     <use xlink:href="#md6f7c1616a" x="169.560208" y="59.529713" style="fill: #0000ff"/>
     <use xlink:href="#md6f7c1616a" x="178.457336" y="59.462638" style="fill: #0000ff"/>
     <use xlink:href="#md6f7c1616a" x="187.354464" y="59.597118" style="fill: #0000ff"/>
     <use xlink:href="#md6f7c1616a" x="196.251592" y="59.939217" style="fill: #0000ff"/>
     <use xlink:href="#md6f7c1616a" x="205.14872" y="59.296376" style="fill: #0000ff"/>
     <use xlink:href="#md6f7c1616a" x="214.045848" y="59.973902" style="fill: #0000ff"/>
     <use xlink:href="#md6f7c1616a" x="222.942976" y="59.870109" style="fill: #0000ff"/>
     <use xlink:href="#md6f7c1616a" x="231.840104" y="59.870109" style="fill: #0000ff"/>
     <use xlink:href="#md6f7c1616a" x="240.737232" y="59.496134" style="fill: #0000ff"/>
     <use xlink:href="#md6f7c1616a" x="249.63436" y="59.197579" style="fill: #0000ff"/>
     <use xlink:href="#md6f7c1616a" x="258.531488" y="59.329467" style="fill: #0000ff"/>
     <use xlink:href="#md6f7c1616a" x="267.428616" y="59.597118" style="fill: #0000ff"/>
     <use xlink:href="#md6f7c1616a" x="276.325744" y="59.630946" style="fill: #0000ff"/>
     <use xlink:href="#md6f7c1616a" x="285.222872" y="59.835686" style="fill: #0000ff"/>
     <use xlink:href="#md6f7c1616a" x="294.12" y="59.597118" style="fill: #0000ff"/>
    </g>
   </g>
   <g id="line2d_75">
    <path clip-path="url(#p43f2a13f81)" style="fill: none; stroke-dasharray: 6.4,1.6,1,1.6; stroke-dashoffset: 0; stroke: #008000"/>
    <defs>
     <path id="m69c5b38f3b" d="M -0 3 
L 3 -3 
L -3 -3 
z
"/>
    </defs>
    <g clip-path="url(#p43f2a13f81)"/>
   </g>
   <g id="line2d_76">
    <path d="M 45.000415 68.325805 
L 53.897543 67.823612 
L 62.794671 67.947443 
L 71.691799 67.947443 
L 80.588927 67.885387 
L 89.486055 67.947443 
L 98.383183 67.458704 
L 107.280311 67.398821 
L 116.177439 67.700891 
L 125.074567 67.339199 
L 133.971695 67.579262 
L 142.868823 67.823612 
L 151.765952 66.928964 
L 160.66308 68.009781 
L 169.560208 67.823612 
L 178.457336 67.823612 
L 187.354464 67.579262 
L 196.251592 68.518983 
L 205.14872 67.279835 
L 214.045848 67.458704 
L 222.942976 68.454287 
L 231.840104 68.780871 
L 240.737232 69.115442 
L 249.63436 68.389895 
L 258.531488 68.262014 
L 267.428616 68.518983 
L 276.325744 65.98107 
L 285.222872 66.198269 
L 294.12 65.87375 
" clip-path="url(#p43f2a13f81)" style="fill: none; stroke-dasharray: 1,1.65; stroke-dashoffset: 0; stroke: #800080"/>
    <defs>
     <path id="m6f231b271b" d="M -0 4.242641 
L 2.545584 0 
L 0 -4.242641 
L -2.545584 -0 
z
"/>
    </defs>
    <g clip-path="url(#p43f2a13f81)">
     <use xlink:href="#m6f231b271b" x="45.000415" y="68.325805" style="fill: #800080"/>
     <use xlink:href="#m6f231b271b" x="53.897543" y="67.823612" style="fill: #800080"/>
     <use xlink:href="#m6f231b271b" x="62.794671" y="67.947443" style="fill: #800080"/>
     <use xlink:href="#m6f231b271b" x="71.691799" y="67.947443" style="fill: #800080"/>
     <use xlink:href="#m6f231b271b" x="80.588927" y="67.885387" style="fill: #800080"/>
     <use xlink:href="#m6f231b271b" x="89.486055" y="67.947443" style="fill: #800080"/>
     <use xlink:href="#m6f231b271b" x="98.383183" y="67.458704" style="fill: #800080"/>
     <use xlink:href="#m6f231b271b" x="107.280311" y="67.398821" style="fill: #800080"/>
     <use xlink:href="#m6f231b271b" x="116.177439" y="67.700891" style="fill: #800080"/>
     <use xlink:href="#m6f231b271b" x="125.074567" y="67.339199" style="fill: #800080"/>
     <use xlink:href="#m6f231b271b" x="133.971695" y="67.579262" style="fill: #800080"/>
     <use xlink:href="#m6f231b271b" x="142.868823" y="67.823612" style="fill: #800080"/>
     <use xlink:href="#m6f231b271b" x="151.765952" y="66.928964" style="fill: #800080"/>
     <use xlink:href="#m6f231b271b" x="160.66308" y="68.009781" style="fill: #800080"/>
     <use xlink:href="#m6f231b271b" x="169.560208" y="67.823612" style="fill: #800080"/>
     <use xlink:href="#m6f231b271b" x="178.457336" y="67.823612" style="fill: #800080"/>
     <use xlink:href="#m6f231b271b" x="187.354464" y="67.579262" style="fill: #800080"/>
     <use xlink:href="#m6f231b271b" x="196.251592" y="68.518983" style="fill: #800080"/>
     <use xlink:href="#m6f231b271b" x="205.14872" y="67.279835" style="fill: #800080"/>
     <use xlink:href="#m6f231b271b" x="214.045848" y="67.458704" style="fill: #800080"/>
     <use xlink:href="#m6f231b271b" x="222.942976" y="68.454287" style="fill: #800080"/>
     <use xlink:href="#m6f231b271b" x="231.840104" y="68.780871" style="fill: #800080"/>
     <use xlink:href="#m6f231b271b" x="240.737232" y="69.115442" style="fill: #800080"/>
     <use xlink:href="#m6f231b271b" x="249.63436" y="68.389895" style="fill: #800080"/>
     <use xlink:href="#m6f231b271b" x="258.531488" y="68.262014" style="fill: #800080"/>
     <use xlink:href="#m6f231b271b" x="267.428616" y="68.518983" style="fill: #800080"/>
     <use xlink:href="#m6f231b271b" x="276.325744" y="65.98107" style="fill: #800080"/>
     <use xlink:href="#m6f231b271b" x="285.222872" y="66.198269" style="fill: #800080"/>
     <use xlink:href="#m6f231b271b" x="294.12" y="65.87375" style="fill: #800080"/>
    </g>
   </g>
   <g id="line2d_77">
    <path d="M 192.438537 141.749717 
L 192.438537 15.722463 
" clip-path="url(#p43f2a13f81)" style="fill: none; stroke-dasharray: 5.55,2.4; stroke-dashoffset: 0; stroke: #000000; stroke-opacity: 0.8; stroke-width: 1.5"/>
   </g>
   <g id="patch_3">
    <path d="M 45.000415 141.749717 
L 45.000415 15.722463 
" style="fill: none; stroke: #000000; stroke-width: 0.8; stroke-linejoin: miter; stroke-linecap: square"/>
   </g>
   <g id="patch_4">
    <path d="M 294.12 141.749717 
L 294.12 15.722463 
" style="fill: none; stroke: #000000; stroke-width: 0.8; stroke-linejoin: miter; stroke-linecap: square"/>
   </g>
   <g id="patch_5">
    <path d="M 45.000415 141.749717 
L 294.12 141.749717 
" style="fill: none; stroke: #000000; stroke-width: 0.8; stroke-linejoin: miter; stroke-linecap: square"/>
   </g>
   <g id="patch_6">
    <path d="M 45.000415 15.722463 
L 294.12 15.722463 
" style="fill: none; stroke: #000000; stroke-width: 0.8; stroke-linejoin: miter; stroke-linecap: square"/>
   </g>
   <g id="legend_1">
    <g id="patch_7">
     <path d="M 131.89637 43.695407 
L 290.303 43.695407 
L 290.303 19.539463 
L 131.89637 19.539463 
z
" style="fill: #ffffff"/>
    </g>
    <g id="line2d_78">
     <path d="M 134.94997 25.264963 
L 140.67547 25.264963 
L 146.40097 25.264963 
" style="fill: none; stroke: #ff0000; stroke-linecap: square"/>
     <g>
      <use xlink:href="#m230a1ba9b3" x="140.67547" y="25.264963" style="fill: #ff0000"/>
     </g>
    </g>
    <g id="text_22">
     <!-- Private State Tokens -->
     <g transform="translate(152.50817 27.936863) scale(0.07634 -0.07634)">
      <defs>
       <path id="LinLibertineT-76" d="M 2080 2540 
C 2426 2515 2464 2439 2330 2115 
L 1811 869 
C 1709 622 1677 622 1574 889 
L 1114 2115 
C 998 2420 973 2496 1312 2540 
C 1350 2579 1350 2713 1312 2752 
C 1101 2745 877 2739 666 2739 
C 454 2739 262 2745 70 2752 
C 32 2713 32 2579 70 2540 
C 410 2502 454 2401 582 2077 
L 1402 69 
C 1440 -26 1478 -64 1562 -64 
C 1626 -64 1670 -26 1715 82 
L 2566 2070 
C 2688 2350 2758 2509 3117 2540 
C 3155 2579 3155 2713 3117 2752 
C 2989 2745 2835 2739 2669 2739 
C 2458 2739 2240 2745 2080 2752 
C 2042 2713 2042 2579 2080 2540 
z
" transform="scale(0.015625)"/>
       <path id="LinLibertineT-53" d="M 2528 4051 
C 2157 4102 2170 4224 1542 4224 
C 896 4224 326 3794 326 3113 
C 326 2439 883 2131 1446 1912 
C 1830 1765 2304 1585 2304 956 
C 2304 436 2016 166 1504 166 
C 909 166 525 442 384 1078 
C 301 1103 237 1091 173 1058 
C 198 564 224 397 301 83 
C 704 83 883 -64 1453 -64 
C 1741 -64 2016 6 2240 147 
C 2611 378 2842 769 2842 1180 
C 2842 1861 2330 2163 1805 2362 
C 1421 2503 781 2747 781 3286 
C 781 3646 1107 4006 1485 4006 
C 2106 4006 2304 3608 2432 3184 
C 2502 3171 2586 3177 2643 3222 
C 2618 3530 2592 3710 2528 4051 
z
" transform="scale(0.015625)"/>
       <path id="LinLibertineT-54" d="M 2240 796 
L 2240 3254 
C 2240 3666 2304 3910 2534 3910 
L 2675 3910 
C 3155 3910 3456 3743 3565 3247 
C 3635 3247 3725 3254 3782 3280 
C 3738 3575 3706 3904 3699 4192 
C 3699 4198 3686 4211 3680 4211 
C 3462 4192 2752 4160 2246 4160 
L 1696 4160 
C 1203 4160 448 4192 205 4211 
C 192 4211 179 4198 179 4192 
C 154 3904 90 3569 19 3260 
C 83 3235 160 3228 237 3228 
C 365 3743 659 3910 1082 3910 
L 1395 3910 
C 1632 3910 1696 3666 1696 3273 
L 1696 796 
C 1696 262 1587 230 1075 211 
C 1037 172 1037 38 1075 0 
C 1389 6 1715 12 1971 12 
C 2214 12 2541 6 2861 0 
C 2899 38 2899 172 2861 211 
C 2349 230 2240 262 2240 796 
z
" transform="scale(0.015625)"/>
       <path id="LinLibertineT-6f" d="M 262 1315 
C 262 660 698 -64 1606 -64 
C 2016 -64 2330 83 2547 294 
C 2835 577 2963 981 2963 1372 
C 2963 2040 2598 2816 1619 2816 
C 1197 2816 851 2643 614 2367 
C 384 2091 262 1719 262 1315 
z
M 1523 2591 
C 2074 2591 2413 2091 2413 1167 
C 2413 358 1997 160 1696 160 
C 1030 160 813 968 813 1462 
C 813 2020 947 2591 1523 2591 
z
" transform="scale(0.015625)"/>
       <path id="LinLibertineT-6b" d="M 550 790 
C 550 262 480 236 122 211 
C 83 172 83 38 122 0 
C 333 6 550 12 806 12 
C 1030 12 1242 6 1389 0 
C 1427 38 1427 172 1389 211 
C 1126 236 1056 262 1056 790 
L 1056 1344 
C 1178 1337 1267 1331 1331 1312 
C 1402 1261 1459 1204 1536 1102 
L 2003 478 
C 2189 230 2266 108 2272 32 
C 2272 12 2278 0 2298 0 
C 2426 6 2566 12 2694 12 
C 2893 12 3091 6 3219 0 
C 3258 38 3258 172 3219 211 
C 3002 236 2842 262 2669 478 
L 1824 1535 
C 1798 1567 1779 1592 1779 1624 
C 1779 1649 1779 1662 1805 1687 
L 2368 2262 
C 2560 2464 2784 2515 3040 2540 
C 3078 2579 3078 2713 3040 2752 
C 2893 2745 2714 2739 2483 2739 
C 2240 2739 2003 2745 1856 2752 
C 1818 2713 1818 2579 1856 2540 
C 2214 2515 2061 2294 2003 2218 
C 1856 2035 1658 1820 1491 1700 
C 1350 1598 1178 1522 1056 1504 
L 1056 3724 
C 1056 4140 1082 4408 1082 4408 
C 1082 4458 1056 4480 998 4480 
C 838 4408 358 4309 102 4288 
C 90 4236 102 4134 141 4096 
C 474 4076 550 4108 550 3571 
L 550 790 
z
" transform="scale(0.015625)"/>
      </defs>
      <use xlink:href="#LinLibertineT-50" transform="scale(0.996264)"/>
      <use xlink:href="#LinLibertineT-72" transform="translate(53.897919 0) scale(0.996264)"/>
      <use xlink:href="#LinLibertineT-69" transform="translate(90.958907 0) scale(0.996264)"/>
      <use xlink:href="#LinLibertineT-76" transform="translate(117.957653 0) scale(0.996264)"/>
      <use xlink:href="#LinLibertineT-61" transform="translate(167.471941 0) scale(0.996264)"/>
      <use xlink:href="#LinLibertineT-74" transform="translate(213.001172 0) scale(0.996264)"/>
      <use xlink:href="#LinLibertineT-65" transform="translate(244.483106 0) scale(0.996264)"/>
      <use xlink:href="#LinLibertineT-53" transform="translate(313.922659 0) scale(0.996264)"/>
      <use xlink:href="#LinLibertineT-74" transform="translate(362.241418 0) scale(0.996264)"/>
      <use xlink:href="#LinLibertineT-61" transform="translate(393.723351 0) scale(0.996264)"/>
      <use xlink:href="#LinLibertineT-74" transform="translate(439.252583 0) scale(0.996264)"/>
      <use xlink:href="#LinLibertineT-65" transform="translate(470.734517 0) scale(0.996264)"/>
      <use xlink:href="#LinLibertineT-54" transform="translate(540.17407 0) scale(0.996264)"/>
      <use xlink:href="#LinLibertineT-6f" transform="translate(593.374607 0) scale(0.996264)"/>
      <use xlink:href="#LinLibertineT-6b" transform="translate(643.586277 0) scale(0.996264)"/>
      <use xlink:href="#LinLibertineT-65" transform="translate(694.594991 0) scale(0.996264)"/>
      <use xlink:href="#LinLibertineT-6e" transform="translate(739.127944 0) scale(0.996264)"/>
      <use xlink:href="#LinLibertineT-73" transform="translate(793.125435 0) scale(0.996264)"/>
     </g>
    </g>
    <g id="line2d_79">
     <path d="M 134.94997 36.197835 
L 140.67547 36.197835 
L 146.40097 36.197835 
" style="fill: none; stroke-dasharray: 3.7,1.6; stroke-dashoffset: 0; stroke: #0000ff"/>
     <g>
      <use xlink:href="#md6f7c1616a" x="140.67547" y="36.197835" style="fill: #0000ff"/>
     </g>
    </g>
    <g id="text_23">
     <!-- CHIPS -->
     <g transform="translate(152.50817 38.869735) scale(0.07634 -0.07634)">
      <defs>
       <path id="LinLibertineT-48" d="M 3955 787 
L 3955 3357 
C 3955 3896 4064 3929 4512 3948 
C 4550 3987 4550 4121 4512 4160 
C 4250 4153 3923 4147 3680 4147 
C 3443 4147 3136 4153 2854 4160 
C 2816 4121 2816 3987 2854 3948 
C 3302 3929 3411 3896 3411 3357 
L 3411 2316 
L 1222 2316 
L 1222 3357 
C 1222 3896 1331 3929 1779 3948 
C 1818 3987 1818 4121 1779 4160 
C 1536 4153 1274 4147 947 4147 
C 627 4147 365 4153 122 4160 
C 83 4121 83 3987 122 3948 
C 570 3929 678 3896 678 3357 
L 678 787 
C 678 261 570 230 122 211 
C 83 172 83 38 122 0 
C 403 6 710 12 954 12 
C 1184 12 1498 6 1779 0 
C 1818 38 1818 172 1779 211 
C 1331 230 1222 261 1222 787 
L 1222 2048 
L 3411 2048 
L 3411 787 
C 3411 261 3302 230 2854 211 
C 2816 172 2816 38 2854 0 
C 3142 6 3450 12 3686 12 
C 3923 12 4230 6 4512 0 
C 4550 38 4550 172 4512 211 
C 4064 230 3955 261 3955 787 
z
" transform="scale(0.015625)"/>
       <path id="LinLibertineT-49" d="M 1222 794 
L 1222 3365 
C 1222 3897 1331 3929 1779 3948 
C 1818 3987 1818 4121 1779 4160 
C 1498 4153 1197 4147 947 4147 
C 736 4147 422 4153 122 4160 
C 83 4121 83 3987 122 3948 
C 570 3929 678 3897 678 3365 
L 678 794 
C 678 262 570 230 122 211 
C 83 172 83 38 122 0 
C 410 6 723 12 954 12 
C 1184 12 1491 6 1779 0 
C 1818 38 1818 172 1779 211 
C 1331 230 1222 262 1222 794 
z
" transform="scale(0.015625)"/>
      </defs>
      <use xlink:href="#LinLibertineT-43" transform="scale(0.996264)"/>
      <use xlink:href="#LinLibertineT-48" transform="translate(64.358646 0) scale(0.996264)"/>
      <use xlink:href="#LinLibertineT-49" transform="translate(137.085873 0) scale(0.996264)"/>
      <use xlink:href="#LinLibertineT-50" transform="translate(166.674896 0) scale(0.996264)"/>
      <use xlink:href="#LinLibertineT-53" transform="translate(220.572815 0) scale(0.996264)"/>
     </g>
    </g>
    <g id="line2d_80">
     <path d="M 223.655354 25.264963 
L 229.380854 25.264963 
L 235.106354 25.264963 
" style="fill: none; stroke-dasharray: 6.4,1.6,1,1.6; stroke-dashoffset: 0; stroke: #008000"/>
     <g>
      <use xlink:href="#m69c5b38f3b" x="229.380854" y="25.264963" style="fill: #008000"/>
     </g>
    </g>
    <g id="text_24">
     <!-- Fenced Frames -->
     <g transform="translate(241.213554 27.936863) scale(0.07634 -0.07634)">
      <defs>
       <path id="LinLibertineT-46" d="M 1811 2112 
C 2355 2112 2374 1962 2394 1669 
C 2432 1630 2566 1630 2605 1669 
C 2598 1832 2592 2020 2592 2240 
C 2592 2456 2598 2621 2605 2786 
C 2566 2824 2432 2824 2394 2786 
C 2374 2437 2355 2355 1811 2355 
L 1216 2355 
L 1216 3497 
C 1216 3840 1293 3903 1574 3903 
L 1862 3903 
C 2541 3903 2701 3650 2842 3212 
C 2918 3212 2989 3224 3040 3243 
C 3008 3504 2912 4115 2899 4166 
C 2899 4179 2893 4185 2874 4185 
C 2765 4166 2733 4160 2573 4160 
L 941 4160 
C 736 4147 371 4153 115 4160 
C 77 4121 77 3987 115 3948 
C 563 3929 672 3898 672 3375 
L 672 803 
C 672 263 563 230 115 211 
C 77 172 77 38 115 0 
C 339 6 659 12 947 12 
C 1235 12 1549 6 1773 0 
C 1811 38 1811 172 1773 211 
C 1325 230 1216 263 1216 803 
L 1216 2112 
L 1811 2112 
z
" transform="scale(0.015625)"/>
       <path id="LinLibertineT-63" d="M 2547 583 
C 2522 641 2470 666 2413 673 
C 2195 390 1920 249 1645 249 
C 1178 249 787 724 787 1475 
C 787 2181 1094 2604 1517 2604 
C 1894 2604 1946 2380 1971 2155 
C 1990 1982 2080 1924 2214 1924 
C 2349 1924 2528 2007 2528 2206 
C 2528 2559 2163 2816 1549 2816 
C 915 2816 237 2245 237 1334 
C 237 506 698 -64 1504 -64 
C 1888 -64 2227 57 2547 583 
z
" transform="scale(0.015625)"/>
       <path id="LinLibertineT-64" d="M 2208 795 
C 2208 673 2195 621 2106 544 
C 1869 339 1664 236 1504 236 
C 1158 236 800 615 800 1417 
C 800 1879 890 2136 986 2271 
C 1184 2572 1453 2591 1581 2591 
C 1811 2591 1971 2508 2099 2360 
C 2189 2258 2208 2213 2208 2014 
L 2208 795 
z
M 2138 320 
C 2170 345 2227 358 2234 313 
C 2253 160 2304 -64 2304 -64 
C 2355 -84 2387 -77 2426 -64 
C 2566 51 2790 147 3181 192 
C 3219 230 3219 326 3181 364 
C 2771 396 2714 518 2714 833 
L 2714 3728 
C 2714 4140 2739 4408 2739 4408 
C 2739 4458 2714 4480 2656 4480 
C 2496 4408 2016 4309 1760 4288 
C 1747 4236 1760 4134 1798 4096 
C 2131 4077 2208 4108 2208 3576 
L 2208 2764 
C 2208 2719 2195 2707 2150 2707 
C 2125 2707 1862 2816 1651 2816 
C 1229 2816 947 2675 691 2431 
C 416 2155 250 1776 250 1301 
C 250 512 646 -64 1338 -64 
C 1587 -64 1824 64 2138 320 
z
" transform="scale(0.015625)"/>
       <path id="LinLibertineT-6d" d="M 1088 2298 
C 1082 2489 1069 2719 1037 2783 
C 1024 2816 1011 2835 960 2835 
C 781 2764 614 2707 173 2649 
C 160 2611 173 2508 186 2470 
C 531 2438 602 2406 602 2036 
L 602 791 
C 602 268 518 236 166 211 
C 128 172 128 38 166 0 
C 358 6 602 12 858 12 
C 1114 12 1312 6 1504 0 
C 1542 38 1542 172 1504 211 
C 1178 243 1107 268 1107 791 
L 1107 1838 
C 1107 1972 1165 2049 1216 2106 
C 1472 2355 1709 2483 1907 2483 
C 2150 2483 2330 2329 2330 1902 
L 2330 791 
C 2330 268 2278 236 1933 211 
C 1901 172 1901 38 1933 0 
C 2093 6 2330 12 2586 12 
C 2842 12 3053 6 3213 0 
C 3245 38 3245 172 3213 211 
C 2893 236 2835 268 2835 791 
L 2835 1806 
C 2835 1896 2835 1985 2829 2061 
C 3136 2400 3424 2483 3674 2483 
C 3917 2483 4058 2342 4058 1915 
L 4058 791 
C 4058 268 3994 236 3661 211 
C 3629 172 3629 38 3661 0 
C 3821 6 4058 12 4314 12 
C 4570 12 4794 6 4973 0 
C 5005 38 5005 172 4973 211 
C 4621 236 4563 268 4563 791 
L 4563 1800 
C 4563 2368 4467 2816 3904 2816 
C 3578 2816 3181 2694 2848 2342 
C 2829 2323 2790 2291 2778 2349 
C 2720 2611 2470 2816 2138 2816 
C 1766 2816 1434 2598 1165 2298 
C 1133 2266 1094 2221 1088 2298 
z
" transform="scale(0.015625)"/>
      </defs>
      <use xlink:href="#LinLibertineT-46" transform="scale(0.996264)"/>
      <use xlink:href="#LinLibertineT-65" transform="translate(48.318759 0) scale(0.996264)"/>
      <use xlink:href="#LinLibertineT-6e" transform="translate(92.851711 0) scale(0.996264)"/>
      <use xlink:href="#LinLibertineT-63" transform="translate(146.849203 0) scale(0.996264)"/>
      <use xlink:href="#LinLibertineT-65" transform="translate(189.489336 0) scale(0.996264)"/>
      <use xlink:href="#LinLibertineT-64" transform="translate(234.71967 0) scale(0.996264)"/>
      <use xlink:href="#LinLibertineT-46" transform="translate(310.037174 0) scale(0.996264)"/>
      <use xlink:href="#LinLibertineT-72" transform="translate(358.355933 0) scale(0.996264)"/>
      <use xlink:href="#LinLibertineT-61" transform="translate(395.416921 0) scale(0.996264)"/>
      <use xlink:href="#LinLibertineT-6d" transform="translate(440.946153 0) scale(0.996264)"/>
      <use xlink:href="#LinLibertineT-65" transform="translate(519.650994 0) scale(0.996264)"/>
      <use xlink:href="#LinLibertineT-73" transform="translate(564.183947 0) scale(0.996264)"/>
     </g>
    </g>
    <g id="line2d_81">
     <path d="M 223.655354 36.197835 
L 229.380854 36.197835 
L 235.106354 36.197835 
" style="fill: none; stroke-dasharray: 1,1.65; stroke-dashoffset: 0; stroke: #800080"/>
     <g>
      <use xlink:href="#m6f231b271b" x="229.380854" y="36.197835" style="fill: #800080"/>
     </g>
    </g>
    <g id="text_25">
     <!-- FedCM -->
     <g transform="translate(241.213554 38.869735) scale(0.07634 -0.07634)">
      <defs>
       <path id="LinLibertineT-4d" d="M 4243 756 
C 4275 236 4250 230 3834 211 
C 3795 172 3795 38 3834 0 
C 4070 6 4326 12 4518 12 
C 4710 12 5005 6 5216 0 
C 5254 38 5254 172 5216 211 
C 4781 230 4762 256 4723 788 
L 4531 3487 
C 4506 3833 4538 3923 4973 3948 
C 5011 3987 5011 4121 4973 4160 
L 4134 4147 
L 2778 897 
C 2752 833 2733 807 2720 807 
C 2707 807 2688 839 2669 890 
L 1357 4147 
L 429 4160 
C 390 4121 390 3987 429 3948 
C 870 3923 909 3910 864 3429 
L 608 788 
C 570 403 493 243 128 211 
C 90 172 90 38 128 0 
C 320 6 525 12 678 12 
C 832 12 1088 6 1280 0 
C 1318 38 1318 172 1280 211 
C 858 243 826 442 858 801 
L 1101 3371 
L 1114 3371 
L 2438 44 
C 2458 -13 2496 -64 2534 -64 
C 2573 -64 2598 -19 2624 32 
L 4064 3434 
L 4077 3434 
L 4243 756 
z
" transform="scale(0.015625)"/>
      </defs>
      <use xlink:href="#LinLibertineT-46" transform="scale(0.996264)"/>
      <use xlink:href="#LinLibertineT-65" transform="translate(48.318759 0) scale(0.996264)"/>
      <use xlink:href="#LinLibertineT-64" transform="translate(93.549093 0) scale(0.996264)"/>
      <use xlink:href="#LinLibertineT-43" transform="translate(143.959997 0) scale(0.996264)"/>
      <use xlink:href="#LinLibertineT-4d" transform="translate(208.318643 0) scale(0.996264)"/>
     </g>
    </g>
   </g>
  </g>
 </g>
 <defs>
  <clipPath id="p43f2a13f81">
   <rect x="45.000415" y="15.722463" width="249.119585" height="126.027254"/>
  </clipPath>
 </defs>
</svg>
